SplineFontDB: 3.2
FontName: KillfeedIcons
FullName: KillfeedIcons
FamilyName: KillfeedIcons
Weight: Regular
Copyright: Copyright (c) 2025, AdamTomaszewski
UComments: "2025-2-28: Created with FontForge (http://fontforge.org)"
Version: 001.000
ItalicAngle: 0
UnderlinePosition: 0
UnderlineWidth: 0
Ascent: 1000
Descent: 0
InvalidEm: 0
LayerCount: 2
Layer: 0 0 "Back" 1
Layer: 1 0 "Fore" 0
XUID: [1021 184 1729844771 29935]
StyleMap: 0x0000
FSType: 0
OS2Version: 0
OS2_WeightWidthSlopeOnly: 0
OS2_UseTypoMetrics: 1
CreationTime: 1740749992
ModificationTime: 1740775234
OS2TypoAscent: 0
OS2TypoAOffset: 1
OS2TypoDescent: 0
OS2TypoDOffset: 1
OS2TypoLinegap: 90
OS2WinAscent: 0
OS2WinAOffset: 1
OS2WinDescent: 0
OS2WinDOffset: 1
HheadAscent: 0
HheadAOffset: 1
HheadDescent: 0
HheadDOffset: 1
OS2Vendor: 'PfEd'
MarkAttachClasses: 1
DEI: 91125
Encoding: ISO8859-1
UnicodeInterp: none
NameList: AGL For New Fonts
DisplaySize: -48
AntiAlias: 1
FitToEm: 0
WinInfo: 0 27 10
BeginPrivate: 0
EndPrivate
BeginChars: 256 43

StartChar: braceright
Encoding: 125 125 0
Width: 1500
VWidth: 2000
Flags: HW
LayerCount: 2
Fore
SplineSet
1590 123 m 2
 1590 -16 1590 -16 1468 -16 c 0
 1412 -16 1412 -16 1341 43 c 2
 304 924 l 1
 304 71 l 2
 304 12 304 12 256 -3 c 0
 242 -5 242 -5 218 -6 c 128
 194 -7 194 -8 160 -8 c 0
 82 -8 82 -8 82 71 c 2
 82 1087 l 2
 82 1219 82 1219 196 1219 c 0
 268 1219 268 1219 344 1155 c 2
 1367 284 l 1
 1367 1132 l 2
 1367 1190 1367 1190 1415 1205 c 0
 1429 1207 1429 1207 1453 1208 c 128
 1477 1209 1477 1210 1511 1210 c 0
 1590 1210 1590 1210 1590 1132 c 2
 1590 123 l 2
1314 1504 m 0
 1314 1456 1314 1456 1296 1444 c 0
 1282 1436 1282 1436 1235 1436 c 2
 579 1436 l 2
 521 1436 521 1436 511 1448 c 0
 500 1462 500 1462 500 1517 c 0
 500 1585 500 1585 579 1585 c 2
 1235 1585 l 2
 1290 1585 1290 1585 1302 1572 c 0
 1314 1558 1314 1558 1314 1504 c 0
EndSplineSet
Validated: 1
EndChar

StartChar: exclam
Encoding: 33 33 1
Width: 1856
Flags: HW
LayerCount: 2
Fore
SplineSet
1322 1340 m 2
 1458 1260 l 2
 1286 962 l 2
 1150 1042 l 2
 1322 1340 l 2
1670 1054 m 2
 1748 916 l 2
 1450 744 l 2
 1372 882 l 2
 1670 1054 l 2
1744 112 m 2
 1632 0 l 2
 1388 242 l 2
 1500 354 l 2
 1744 112 l 2
372 352 m 2
 484 240 l 2
 240 -2 l 2
 128 110 l 2
 372 352 l 2
978 1014 m 2
 818 1014 l 2
 818 1358 l 2
 978 1358 l 2
 978 1014 l 2
702 1050 m 2
 566 970 l 2
 394 1268 l 2
 530 1348 l 2
 702 1050 l 2
484 876 m 2
 406 738 l 2
 108 910 l 2
 186 1048 l 2
 484 876 l 2
1756 640 m 2
 1756 482 l 2
 1412 482 l 2
 1412 640 l 2
 1756 640 l 2
444 640 m 2
 444 482 l 2
 100 482 l 2
 100 640 l 2
 444 640 l 2
506 390 m 2
 506 796 l 2
 724 796 l 2
 724 950 l 2
 1130 952 l 2
 1130 732 l 2
 1350 732 l 2
 1350 232 l 2
 974 232 l 2
 974 546 l 2
 880 546 l 2
 880 390 l 2
 506 390 l 2
EndSplineSet
Validated: 1
EndChar

StartChar: quotedbl
Encoding: 34 34 2
Width: 1574
Flags: HW
LayerCount: 2
Fore
SplineSet
556 682 m 27
 556 708 562 742 588 742 c 27
 636 742 714 742 714 742 c 26
 714 742 714 820 714 870 c 27
 714 902 758 900 790 900 c 27
 824 900 870 904 870 870 c 27
 870 820 870 742 870 742 c 26
 870 742 946 742 996 742 c 27
 1022 742 1026 708 1026 682 c 27
 1026 654 1024 618 996 618 c 27
 946 618 868 618 868 618 c 26
 868 618 868 542 868 494 c 27
 868 462 824 462 792 462 c 27
 760 462 714 462 714 494 c 27
 714 542 714 618 714 618 c 26
 714 618 634 618 588 618 c 27
 560 618 556 654 556 682 c 27
1122 820 m 27
 1152 820 1186 802 1186 772 c 27
 1186 698 1186 658 1186 584 c 27
 1186 554 1152 540 1122 540 c 27
 1092 540 1058 554 1058 584 c 27
 1058 658 1058 698 1058 772 c 27
 1058 802 1092 820 1122 820 c 27
458 820 m 27
 488 820 522 802 522 772 c 27
 522 698 522 658 522 584 c 27
 522 554 488 540 458 540 c 27
 428 540 394 554 394 584 c 27
 394 658 394 698 394 772 c 27
 394 802 428 820 458 820 c 27
648 1008 m 27
 648 1038 664 1070 694 1070 c 27
 768 1070 808 1070 882 1070 c 27
 912 1070 928 1038 928 1008 c 27
 928 978 912 944 882 944 c 27
 808 944 768 944 694 944 c 27
 664 944 648 978 648 1008 c 27
648 352 m 27
 648 382 664 414 694 414 c 27
 768 414 808 414 882 414 c 27
 912 414 928 382 928 352 c 27
 928 322 912 288 882 288 c 27
 808 288 768 288 694 288 c 27
 664 288 648 322 648 352 c 27
784 1150 m 24
 1036 1152 1250 954 1252 702 c 24
 1254 448 1046 240 792 238 c 24
 538 236 330 444 328 698 c 24
 326 948 534 1148 784 1150 c 24
100 690 m 24
 104 310 418 -4 798 0 c 24
 1182 6 1478 324 1474 708 c 24
 1470 1096 1168 1416 780 1410 c 24
 396 1404 96 1074 100 690 c 24
EndSplineSet
Validated: 41
EndChar

StartChar: numbersign
Encoding: 35 35 3
Width: 1888
Flags: HW
LayerCount: 2
Fore
SplineSet
820 499 m 26
 820 343 l 26
 1070 343 l 26
 1070 499 l 26
 820 499 l 26
1038 749 m 26
 1038 563 l 26
 1256 561 l 26
 1256 747 l 26
 1038 749 l 26
632 749 m 26
 632 561 l 26
 850 561 l 26
 850 749 l 26
 632 749 l 26
474 969 m 26
 820 969 l 26
 820 843 l 26
 1068 843 l 26
 1068 969 l 26
 1412 969 l 26
 1412 311 l 26
 1100 313 l 26
 1100 93 l 26
 786 93 l 26
 786 311 l 26
 476 311 l 26
 474 969 l 26
690 1229 m 26
 744 1261 l 26
 838 1097 l 26
 784 1065 l 26
 690 1229 l 26
1164 1261 m 26
 1218 1229 l 26
 1124 1065 l 26
 1070 1097 l 26
 1164 1261 l 26
912 1281 m 26
 976 1281 l 26
 976 1093 l 26
 912 1093 l 26
 912 1281 l 26
1444 1219 m 2
 1444 969 l 2
 1788 969 l 2
 1788 1219 l 2
 1444 1219 l 2
100 1219 m 2
 100 969 l 2
 444 969 l 2
 444 1219 l 2
 100 1219 l 2
1444 251 m 2
 1444 1 l 2
 1788 1 l 2
 1788 251 l 2
 1444 251 l 2
100 251 m 2
 100 1 l 2
 444 1 l 2
 444 251 l 2
 100 251 l 2
EndSplineSet
Validated: 9
EndChar

StartChar: dollar
Encoding: 36 36 4
Width: 1888
Flags: HW
LayerCount: 2
Fore
SplineSet
820 499 m 26
 820 343 l 26
 1070 343 l 26
 1070 499 l 26
 820 499 l 26
1038 749 m 26
 1038 563 l 26
 1256 561 l 26
 1256 747 l 26
 1038 749 l 26
632 749 m 26
 632 561 l 26
 850 561 l 26
 850 749 l 26
 632 749 l 26
1069 969 m 26
 1070 969 1412 969 1412 969 c 26
 1412 311 l 26
 1100 313 l 26
 1100 93 l 26
 786 93 l 26
 786 311 l 26
 476 311 l 26
 474 969 l 26
 1069 969 l 26
1444 1219 m 2
 1444 969 l 2
 1788 969 l 2
 1788 1219 l 2
 1444 1219 l 2
100 1219 m 2
 100 969 l 2
 444 969 l 2
 444 1219 l 2
 100 1219 l 2
1444 251 m 2
 1444 1 l 2
 1788 1 l 2
 1788 251 l 2
 1444 251 l 2
100 251 m 2
 100 1 l 2
 444 1 l 2
 444 251 l 2
 100 251 l 2
EndSplineSet
Validated: 9
EndChar

StartChar: percent
Encoding: 37 37 5
Width: 1336
Flags: HW
LayerCount: 2
Fore
SplineSet
1180 140 m 27
 1180 72 1144 0 1076 0 c 27
 912 0 656 0 492 0 c 27
 424 0 396 72 396 140 c 27
 396 208 424 280 492 280 c 27
 656 280 912 280 1076 280 c 27
 1144 280 1180 208 1180 140 c 27
1108 950 m 27
 1168 950 1236 914 1236 854 c 27
 1236 706 1236 546 1236 398 c 27
 1236 338 1168 310 1108 310 c 27
 1048 310 980 338 980 398 c 27
 980 546 980 706 980 854 c 27
 980 914 1048 950 1108 950 c 27
806 1018 m 27
 870 1018 940 982 940 918 c 27
 940 762 940 554 940 398 c 27
 940 334 870 306 806 306 c 27
 742 306 672 334 672 398 c 27
 672 554 672 762 672 918 c 27
 672 982 742 1018 806 1018 c 27
518 978 m 27
 582 978 652 942 652 878 c 27
 652 722 652 554 652 398 c 27
 652 334 582 306 518 306 c 27
 454 306 384 334 384 398 c 27
 384 554 384 722 384 878 c 27
 384 942 454 978 518 978 c 27
228 910 m 27
 288 910 356 874 356 814 c 27
 356 666 356 546 356 398 c 27
 356 338 288 310 228 310 c 27
 168 310 100 338 100 398 c 27
 100 546 100 666 100 814 c 27
 100 874 168 910 228 910 c 27
EndSplineSet
Validated: 1
EndChar

StartChar: ampersand
Encoding: 38 38 6
Width: 1640
Flags: HW
LayerCount: 2
Fore
SplineSet
1100 720 m 26
 1228 720 l 26
 1228 878 l 26
 1100 878 l 26
 1100 720 l 26
818 594 m 26
 976 594 l 26
 976 878 l 26
 818 878 l 26
 818 594 l 26
538 594 m 26
 696 594 l 26
 696 878 l 26
 538 878 l 26
 538 594 l 26
258 594 m 26
 416 594 l 26
 416 878 l 26
 258 878 l 26
 258 594 l 26
1068 2 m 26
 1068 286 l 26
 1320 286 l 26
 1320 2 l 26
 1068 2 l 26
288 2 m 26
 288 286 l 26
 540 286 l 26
 540 2 l 26
 288 2 l 26
100 158 m 26
 100 1066 l 26
 1352 1066 l 26
 1352 754 l 26
 1540 754 l 26
 1540 158 l 26
 1350 158 l 26
 1350 314 l 26
 1040 314 l 26
 1040 158 l 26
 568 158 l 26
 568 314 l 26
 260 314 l 26
 260 158 l 26
 100 158 l 26
EndSplineSet
Validated: 1
EndChar

StartChar: asterisk
Encoding: 42 42 7
Width: 1694
Flags: HW
LayerCount: 2
Fore
SplineSet
1594 431 m 5
 1594 2000 l 5
 100 2000 l 5
 98 432 l 5
 847 0 l 5
 1594 431 l 5
191 486 m 5
 193 1908 l 5
 1501 1908 l 5
 1501 484 l 5
 847 107 l 5
 191 486 l 5
EndSplineSet
Validated: 9
EndChar

StartChar: plus
Encoding: 43 43 8
Width: 1694
Flags: HW
LayerCount: 2
Fore
SplineSet
1594 431 m 5
 1594 2000 l 5
 100 2000 l 5
 98 432 l 5
 847 0 l 5
 1594 431 l 5
191 486 m 5
 193 1908 l 5
 1501 1908 l 5
 1501 484 l 5
 847 107 l 5
 191 486 l 5
1395 570 m 5
 1395 570 1395 779 1395 781 c 5
 845 463 l 6
 845 463 301 779 296 782 c 5
 296 711 296 639 296 568 c 5
 846 253 l 5
 845 253 1395 570 1395 570 c 5
1394 779 m 5
 1394 761 1394 570 1394 570 c 6
 1394 570 846 254 845 254 c 6
 845 254 297 568 297 569 c 6
 297 780 l 5
 844 462 l 5
 1394 779 l 5
297 781 m 5
 297 568 l 5
 845 254 l 5
 1394 570 l 5
 1394 780 l 5
 845 463 l 5
 297 781 l 5
EndSplineSet
Validated: 37
EndChar

StartChar: comma
Encoding: 44 44 9
Width: 1693
Flags: HW
LayerCount: 2
Fore
SplineSet
1593 431 m 1
 1593 2000 l 1
 100 2000 l 1
 98 432 l 1
 847 0 l 1
 1593 431 l 1
191 486 m 1
 193 1908 l 1
 1501 1908 l 1
 1501 484 l 1
 847 107 l 1
 191 486 l 1
1395 570 m 1
 1395 570 1395 779 1395 781 c 1
 845 463 l 2
 844 463 301 779 296 782 c 1
 296 711 296 639 296 568 c 1
 845 253 l 1
 1395 570 l 1
1393 779 m 1
 1393 761 1393 570 1393 570 c 2
 845 254 l 2
 845 254 297 568 297 569 c 2
 298 780 l 1
 844 462 l 1
 1393 779 l 1
297 781 m 1
 297 568 l 1
 845 254 l 1
 1394 570 l 1
 1394 780 l 1
 844 463 l 1
 297 781 l 1
1398 910 m 1
 1398 910 1398 1120 1398 1122 c 1
 847 804 l 2
 847 804 304 1119 299 1122 c 1
 299 1051 299 979 299 908 c 1
 848 594 l 1
 847 594 1398 910 1398 910 c 1
1396 1119 m 1
 1396 1102 1396 911 1396 910 c 2
 1396 910 848 595 847 595 c 2
 300 909 l 2
 300 1120 l 1
 847 803 l 1
 1396 1119 l 1
300 1121 m 1
 300 909 l 1
 848 594 l 1
 1397 910 l 1
 1397 1120 l 1
 847 803 l 1
 300 1121 l 1
EndSplineSet
Validated: 37
EndChar

StartChar: hyphen
Encoding: 45 45 10
Width: 1694
Flags: HW
LayerCount: 2
Fore
SplineSet
1594 431 m 1
 1594 2000 l 1
 100 2000 l 1
 98 432 l 1
 847 0 l 1
 1594 431 l 1
191 486 m 1
 193 1908 l 1
 1501 1908 l 1
 1501 484 l 1
 847 107 l 1
 191 486 l 1
1395 570 m 1
 1395 570 1395 779 1395 781 c 1
 845 463 l 2
 845 463 301 779 296 782 c 1
 296 711 296 639 296 568 c 1
 846 253 l 1
 845 253 1395 570 1395 570 c 1
1394 779 m 1
 1394 761 1394 570 1394 570 c 2
 1394 570 846 254 845 254 c 2
 845 254 297 568 297 569 c 2
 297 780 l 1
 844 462 l 1
 1394 779 l 1
297 781 m 1
 297 568 l 1
 845 254 l 1
 1394 570 l 1
 1394 780 l 1
 845 463 l 1
 297 781 l 1
1397 910 m 1
 1397 910 1397 1120 1397 1122 c 1
 848 804 l 2
 847 804 304 1119 299 1122 c 1
 299 1051 299 979 299 908 c 1
 848 594 l 1
 1397 910 l 1
1396 1119 m 1
 1396 1102 1396 911 1396 910 c 2
 848 595 l 2
 300 909 l 2
 300 1120 l 1
 847 803 l 1
 1396 1119 l 1
299 1121 m 1
 299 909 l 1
 848 594 l 1
 1397 910 l 1
 1397 1120 l 1
 847 803 l 1
 299 1121 l 1
1395 1251 m 1
 1395 1251 1395 1461 1395 1463 c 1
 845 1145 l 2
 845 1145 301 1461 296 1464 c 1
 296 1393 297 1320 297 1249 c 1
 846 935 l 1
 845 935 1395 1251 1395 1251 c 1
1394 1460 m 1
 1394 1443 1394 1251 1394 1251 c 2
 1394 1251 846 936 845 936 c 2
 845 936 297 1250 297 1251 c 2
 298 1461 l 1
 845 1144 l 1
 1394 1460 l 1
297 1462 m 1
 297 1250 l 1
 846 935 l 1
 1394 1251 l 1
 1394 1462 l 1
 845 1144 l 1
 297 1462 l 1
EndSplineSet
Validated: 37
EndChar

StartChar: zero
Encoding: 48 48 11
Width: 4200
Flags: HW
LayerCount: 2
Fore
SplineSet
1541 1224 m 1
 1541 1241 l 1
 1510 1241 l 1
 1510 1224 l 1
 1481 1224 l 1
 1481 1240 l 1
 1450 1240 l 1
 1450 1224 l 1
 1418 1224 l 1
 1418 1240 l 1
 1386 1240 l 1
 1386 1224 l 1
 1352 1224 l 1
 1352 1240 l 1
 1322 1240 l 1
 1322 1224 l 1
 1294 1224 l 1
 1294 1241 l 1
 1261 1241 l 1
 1261 1224 l 1
 1237 1224 l 1
 1237 1241 l 1
 1166 1241 l 1
 1163 1178 l 1
 131 1173 l 1
 125 1157 100 1092 100 1091 c 0
 100 925 100 760 100 594 c 1
 109 573 119 553 128 532 c 1
 919 705 l 1
 919 705 1322 811 1347 818 c 1
 1407 777 l 1
 1455 691 l 1
 1465 606 l 1
 1465 606 1318 396 1318 395 c 2
 1283 245 l 2
 1288 176 l 1
 1331 159 1394 134 1394 134 c 2
 1481 126 l 1
 1755 36 l 2
 2105 5 l 1
 2105 16 l 1
 2437 46 l 1
 2404 754 l 1
 2439 715 l 1
 3819 795 l 1
 3841 866 l 1
 4100 866 l 1
 4100 968 l 1
 3838 968 l 1
 3827 1158 l 1
 3791 1158 3755 1159 3719 1159 c 1
 3719 1206 l 1
 3701 1206 l 1
 3701 1221 3702 1236 3701 1250 c 1
 3690 1268 l 1
 3684 1268 l 1
 3684 1343 3684 1343 3674 1464 c 1
 3655 1467 3655 1468 3629 1468 c 1
 3619 1425 3609 1381 3600 1338 c 1
 3600 1338 3600 1337 3592 1269 c 1
 3607 1269 l 1
 3606 1266 l 1
 3599 1266 3590 1267 3585 1265 c 0
 3582 1261 3576 1256 3573 1251 c 2
 3573 1208 l 1
 3555 1208 l 1
 3555 1222 l 1
 3525 1222 l 1
 3525 1207 l 1
 3494 1207 l 1
 3494 1221 l 1
 3465 1221 l 1
 3465 1207 l 1
 3430 1207 l 1
 3430 1222 l 1
 3402 1222 l 1
 3402 1208 l 1
 3367 1208 l 1
 3367 1222 l 1
 3336 1222 l 1
 3336 1207 l 1
 3307 1207 l 1
 3307 1222 l 1
 3278 1222 l 1
 3278 1208 l 1
 3251 1208 l 1
 3251 1222 l 1
 3179 1222 l 1
 3179 1189 l 1
 3133 1174 l 1
 2643 1176 l 1
 2663 1298 l 1
 2663 1298 2596 1287 2588 1280 c 0
 2574 1267 2560 1254 2546 1240 c 1
 2518 1178 l 1
 1747 1178 l 1
 1747 1224 l 1
 1729 1224 l 1
 1729 1239 1730 1256 1728 1269 c 0
 1722 1275 1717 1282 1710 1287 c 0
 1708 1289 1703 1289 1703 1293 c 2
 1703 1501 l 1
 1676 1501 1647 1502 1622 1500 c 1
 1616 1493 1610 1487 1605 1480 c 2
 1559 1291 l 1
 1587 1287 l 1
 1582 1286 1575 1286 1570 1284 c 0
 1567 1280 1563 1276 1560 1272 c 0
 1558 1257 1558 1257 1558 1224 c 1
 1541 1224 l 1
1705 518 m 1
 2029 518 l 1
 2051 40 l 1
 2017 46 1752 91 1752 91 c 2
 1544 139 l 1
 1546 155 1554 243 1554 243 c 2
 1594 374 l 1
 1705 518 l 1
1768 687 m 1
 1847 686 1928 682 2005 682 c 1
 2021 700 l 1
 2029 548 l 1
 1705 548 l 1
 1702 628 l 1
 1768 687 l 1
EndSplineSet
Validated: 41
EndChar

StartChar: one
Encoding: 49 49 12
Width: 2631
Flags: HW
LayerCount: 2
Fore
SplineSet
2401 1589 m 2
 2336 1623 2325 1627 2265 1636 c 0
 2215 1641 2157 1634 2082 1618 c 1
 2041 1600 l 1
 2003 1573 l 2
 1951 1551 l 1
 1853 1476 l 1
 1795 1414 l 1
 1751 1356 l 1
 1736 1313 l 1
 1736 1314 1746 1241 1746 1241 c 1
 1746 1242 1757 1215 1757 1215 c 1
 1757 1215 1775 1191 1779 1185 c 2
 1713 1112 l 1
 1667 1158 l 1
 1651 1164 l 1
 1624 1167 l 0
 1530 1198 l 2
 1529 1198 1487 1259 1487 1259 c 1
 1402 1294 l 2
 1402 1295 1360 1366 1360 1366 c 1
 1361 1365 1241 1426 1239 1426 c 2
 1209 1405 l 1
 1209 1405 1162 1463 1160 1464 c 2
 1141 1461 l 1
 1141 1460 1131 1443 1131 1441 c 2
 1177 1384 l 1
 1158 1372 1158 1372 1146 1362 c 2
 1062 1389 l 1
 1063 1389 1006 1376 1005 1375 c 2
 1004 1368 l 1
 1004 1368 1000 1368 998 1368 c 2
 990 1357 l 1
 952 1359 l 1
 914 1329 l 2
 913 1329 887 1324 887 1324 c 2
 888 1312 l 1
 860 1290 l 1
 860 1290 852 1257 850 1250 c 2
 813 1249 l 2
 812 1242 811 1235 810 1228 c 1
 814 1207 l 2
 836 1208 l 1
 831 1188 l 2
 831 1187 588 977 588 977 c 1
 588 978 560 922 560 921 c 1
 560 921 561 887 561 881 c 2
 514 847 l 1
 514 847 419 772 417 771 c 1
 409 733 l 1
 409 734 428 661 428 661 c 1
 428 661 457 627 464 619 c 1
 394 567 l 2
 214 525 l 2
 212 525 138 530 137 530 c 2
 135 508 l 1
 105 500 l 1
 107 441 l 1
 142 449 177 457 212 465 c 0
 212 465 287 452 320 450 c 0
 320 450 311 427 311 425 c 2
 323 406 l 1
 323 406 281 390 280 388 c 2
 281 371 l 1
 287 348 l 1
 295 329 l 2
 335 345 l 1
 270 299 l 2
 275 288 281 276 286 265 c 1
 286 265 310 251 312 251 c 2
 378 298 l 1
 387 284 l 1
 232 177 l 1
 269 139 l 1
 415 246 l 1
 429 226 429 226 440 210 c 1
 440 210 461 194 462 194 c 1
 462 194 507 192 509 192 c 1
 509 192 518 201 521 204 c 2
 538 191 l 2
 541 194 565 212 565 214 c 2
 559 234 l 1
 577 249 l 1
 577 249 582 284 583 292 c 0
 599 290 614 289 630 287 c 1
 630 287 644 296 648 298 c 2
 648 298 665 286 667 286 c 2
 685 296 l 1
 690 281 l 1
 824 328 l 1
 828 298 l 1
 828 299 888 245 888 245 c 1
 887 245 1016 244 1016 244 c 1
 1382 261 l 2
 1521 244 l 2
 1521 244 1670 219 1672 219 c 1
 1672 219 1679 221 1682 221 c 1
 1684 189 l 2
 1672 123 l 2
 1672 123 1631 50 1630 49 c 0
 1630 49 1627 36 1628 34 c 2
 1651 16 l 1
 1670 53 1688 89 1707 126 c 1
 1722 191 l 1
 1722 191 1721 217 1721 224 c 2
 1748 227 l 1
 1753 173 l 1
 1753 173 1779 151 1781 149 c 1
 1781 149 1786 149 1789 149 c 1
 1784 105 l 2
 1784 104 1742 34 1742 32 c 2
 1742 32 1754 15 1756 14 c 2
 1778 18 l 1
 1795 0 l 1
 1824 25 1852 51 1881 76 c 1
 1881 75 1907 208 1907 208 c 1
 1907 208 1897 275 1896 286 c 2
 1896 286 1955 320 1956 321 c 2
 1957 506 l 1
 1957 506 1938 526 1907 561 c 0
 1907 562 1854 730 1854 730 c 2
 1854 731 1868 896 1868 896 c 1
 1868 895 1831 958 1824 969 c 1
 1832 973 l 1
 1832 973 1842 966 1844 966 c 2
 1844 966 1861 975 1862 977 c 2
 1859 990 l 1
 1868 995 l 1
 1869 1006 l 2
 1870 1007 1884 1016 1884 1016 c 2
 1885 1016 1899 1012 1900 1012 c 1
 1900 1012 1911 1017 1914 1018 c 2
 1914 1018 1926 1010 1928 1010 c 2
 1928 1010 1944 1018 1945 1019 c 2
 1946 1024 l 1
 1973 1017 l 1
 1972 1017 1974 1017 2072 1001 c 0
 2077 992 2077 991 2085 981 c 1
 2085 981 2096 975 2097 975 c 1
 2097 975 2117 980 2118 980 c 0
 2118 980 2128 985 2137 994 c 2
 2137 994 2150 980 2152 980 c 2
 2204 992 l 1
 2252 1008 l 2
 2311 1019 l 1
 2410 1054 l 1
 2446 1077 l 1
 2445 1077 2497 1160 2497 1160 c 1
 2535 1261 l 1
 2535 1260 2529 1342 2529 1342 c 1
 2506 1439 l 1
 2464 1539 l 1
 2401 1589 l 2
2132 989 m 1
 2132 989 l 1
2118 980 m 1
 2118 980 l 1
2097 975 m 1
 2097 975 l 1
2085 981 m 1
 2085 981 l 1
2077 992 m 1
 2077 992 l 1
1900 1012 m 1
 1900 1012 l 1
1868 995 m 1
 1868 995 l 1
1957 506 m 1
 1957 506 l 1
1781 149 m 1
 1781 149 l 1
1753 173 m 1
 1753 173 l 1
1630 49 m 1
 1630 49 l 1
1672 219 m 1
 1672 219 l 1
630 287 m 1
 630 287 l 1
577 249 m 1
 577 249 l 1
509 192 m 1
 509 192 l 1
462 194 m 1
 462 194 l 1
440 210 m 1
 440 210 l 1
286 265 m 1
 286 265 l 1
320 450 m 1
 320 450 l 1
417 771 m 1
 417 771 l 1
560 921 m 1
 560 921 l 1
810 1228 m 1
 810 1228 l 1
860 1290 m 1
 860 1290 l 1
952 1359 m 1
 952 1359 l 1
1141 1461 m 1
 1141 1461 l 1
1651 1164 m 1
 1651 1164 l 1
1667 1158 m 1
 1667 1158 l 1
2188 1298 m 0
 2179 1299 2152 1313 2137 1334 c 0
 2129 1346 2115 1369 2119 1381 c 0
 2125 1385 2152 1381 2177 1355 c 0
 2192 1336 2193 1307 2192 1300 c 0
 2190 1298 2188 1298 2188 1298 c 0
2136 998 m 1
 2146 1018 l 1
 2224 1051 l 1
 2221 1057 l 1
 2225 1095 l 1
 2278 1136 l 1
 2337 1151 l 1
 2376 1144 l 1
 2395 1115 l 2
 2393 1093 2393 1069 2390 1047 c 1
 2386 1048 l 1
 2388 1059 2392 1116 2392 1116 c 2
 2392 1116 2374 1141 2373 1142 c 2
 2336 1147 l 2
 2279 1132 l 2
 2279 1132 2227 1093 2227 1092 c 2
 2227 1092 2225 1058 2225 1057 c 0
 2226 1054 2228 1052 2230 1049 c 1
 2148 1014 l 1
 2139 996 l 1
 2136 998 l 1
2271 1041 m 1
 2249 1052 l 2
 2248 1053 2250 1076 2250 1076 c 1
 2250 1077 2267 1102 2267 1102 c 1
 2297 1123 l 1
 2297 1123 2332 1132 2332 1133 c 1
 2333 1132 2352 1123 2353 1123 c 1
 2353 1121 2356 1099 2356 1099 c 1
 2355 1098 2337 1068 2337 1068 c 1
 2336 1068 2302 1049 2302 1049 c 1
 2271 1041 l 1
2250 1076 m 1
 2250 1076 l 1
2267 1102 m 1
 2267 1102 l 1
2332 1133 m 1
 2332 1133 l 1
2353 1123 m 1
 2353 1123 l 1
2356 1100 m 1
 2356 1100 l 1
2337 1068 m 1
 2337 1068 l 1
2057 1469 m 0
 2050 1471 1998 1511 2007 1545 c 0
 2011 1548 2015 1550 2021 1550 c 0
 2049 1547 2057 1529 2059 1519 c 0
 2067 1494 2062 1478 2057 1469 c 0
EndSplineSet
Validated: 37
EndChar

StartChar: two
Encoding: 50 50 13
Width: 2193
Flags: HW
LayerCount: 2
Fore
SplineSet
177 5 m 1
 100 138 l 1
 109 173 l 1
 378 328 l 1
 318 433 l 1
 327 468 l 1
 534 588 l 1
 572 578 l 1
 595 539 l 1
 630 559 l 1
 598 613 l 1
 607 647 l 1
 785 750 l 1
 813 806 l 1
 809 843 l 1
 820 855 l 1
 1040 982 l 1
 1050 982 l 1
 1080 962 l 1
 1075 999 l 1
 1086 1009 l 1
 1298 1132 l 1
 1318 1137 l 1
 1347 1114 l 1
 1399 1113 l 1
 1415 1102 l 1
 1452 1038 l 1
 1478 1052 l 1
 1456 1090 l 1
 1466 1127 l 1
 1670 1245 l 1
 1708 1235 l 1
 1737 1185 l 1
 1771 1205 l 1
 1771 1226 l 1
 1789 1259 l 1
 1825 1279 l 1
 1862 1279 l 1
 1897 1260 l 1
 2093 918 l 1
 2060 876 l 1
 2059 871 l 1
 2019 826 l 1
 1995 826 l 1
 1939 924 l 1
 1901 902 l 1
 1930 852 l 1
 1922 818 l 1
 1713 697 l 1
 1678 707 l 1
 1656 745 l 1
 1629 729 l 1
 1667 664 l 1
 1668 643 l 1
 1645 600 l 1
 1650 562 l 1
 1637 548 l 1
 1425 427 l 1
 1410 422 l 1
 1380 444 l 1
 1384 408 l 1
 1370 394 l 1
 1158 272 l 1
 1143 268 l 1
 1112 291 l 1
 1048 294 l 1
 868 189 l 1
 838 198 l 1
 806 253 l 1
 772 233 l 1
 795 192 l 1
 786 158 l 1
 578 38 l 1
 542 47 l 1
 482 152 l 1
 212 -3 l 1
 177 5 l 1
EndSplineSet
Validated: 1
EndChar

StartChar: three
Encoding: 51 51 14
Width: 2700
Flags: HW
LayerCount: 2
Fore
SplineSet
1828 849 m 2
 1858 749 l 1
 1850 716 1840 683 1831 650 c 0
 1830 650 1682 658 1682 658 c 0
 1655 657 1628 655 1601 654 c 1
 1602 665 l 1
 1704 667 l 1
 1699 728 1693 788 1687 849 c 1
 1689 849 1827 849 1828 849 c 2
1011 850 m 1
 1334 850 l 1
 1343 819 1352 788 1361 757 c 1
 1359 740 1355 723 1352 706 c 1
 1321 661 1290 617 1258 572 c 1
 1011 671 l 1
 1011 850 l 1
231 771 m 1
 270 771 l 1
 270 856 l 1
 441 924 l 1
 558 861 l 1
 558 733 l 1
 478 631 l 1
 333 679 l 1
 231 741 l 1
 231 771 l 1
1847 1335 m 1
 1847 1526 l 1
 1792 1526 l 1
 1792 1445 l 1
 1694 1376 l 1
 1694 1309 l 1
 1502 1309 l 1
 1502 1287 l 1
 1540 1287 l 1
 1413 1251 l 1
 991 1251 l 1
 957 1279 l 1
 863 1279 767 1280 673 1279 c 1
 607 1235 l 1
 607 1239 l 1
 260 1239 l 1
 251 1319 244 1401 235 1480 c 1
 212 1500 l 1
 181 1497 149 1496 119 1492 c 1
 106 1476 l 0
 106 1476 100 1460 100 1459 c 2
 129 1120 l 2
 129 1120 116 773 116 770 c 1
 123 770 l 1
 121 742 119 713 117 685 c 1
 286 566 l 1
 285 567 501 472 502 472 c 0
 563 481 563 481 563 481 c 1
 563 483 l 1
 598 483 l 1
 596 5 l 1
 597 5 709 14 709 14 c 2
 939 98 l 1
 939 482 l 1
 1007 482 l 1
 1106 433 l 1
 1299 261 l 1
 1332 295 1365 329 1397 363 c 1
 1397 363 1545 580 1556 596 c 1
 1650 596 1745 593 1839 593 c 1
 1856 604 1873 615 1889 627 c 1
 1922 749 l 2
 1919 780 l 1
 2105 780 l 1
 2096 582 l 1
 2096 255 l 2
 2109 204 l 1
 2109 176 l 1
 2246 176 l 1
 2246 203 l 1
 2261 252 l 2
 2261 588 l 1
 2261 588 2253 760 2252 781 c 1
 2363 781 l 1
 2363 845 l 2
 2365 845 2371 845 2371 847 c 2
 2371 847 2378 872 2378 873 c 2
 2378 906 l 1
 2600 906 l 1
 2600 1021 l 1
 2379 1021 l 1
 2379 1034 l 1
 2420 1034 l 1
 2451 1081 2483 1128 2514 1175 c 0
 2514 1175 2561 1227 2561 1228 c 0
 2561 1316 2561 1316 2561 1316 c 1
 2446 1318 l 1
 2434 1305 2422 1291 2410 1277 c 0
 2410 1277 2380 1249 2375 1245 c 1
 2037 1245 l 1
 1994 1288 l 1
 2019 1288 l 1
 2019 1307 l 1
 1907 1307 l 1
 1907 1335 l 1
 1847 1335 l 1
EndSplineSet
Validated: 41
EndChar

StartChar: four
Encoding: 52 52 15
Width: 4200
Flags: HW
LayerCount: 2
Fore
SplineSet
1295 852 m 1
 1403 852 1512 852 1619 852 c 0
 1622 850 1650 759 1650 760 c 1
 1641 707 l 1
 1609 662 1577 616 1545 570 c 1
 1297 668 l 2
 1296 670 1295 819 1295 852 c 1
2119 852 m 0
 2119 851 2149 750 2149 751 c 1
 2140 718 2132 684 2123 651 c 0
 2122 651 1953 660 1953 660 c 0
 1932 659 1909 657 1888 657 c 1
 1891 667 1892 667 1892 668 c 0
 1926 668 1960 669 1994 669 c 1
 1988 730 1983 791 1977 852 c 1
 1980 852 1980 852 2119 852 c 0
545 860 m 1
 722 932 l 1
 845 865 l 1
 845 734 l 1
 817 698 789 663 761 627 c 1
 616 676 616 676 616 676 c 1
 592 690 569 703 545 717 c 1
 545 860 l 1
1641 707 m 1
 1641 707 l 1
1907 663 m 1
 1904 663 1899 662 1895 662 c 1
 1907 663 l 1
2313 1308 m 1
 2358 1308 l 1
 2358 1535 l 1
 1999 1535 l 1
 1999 1450 l 1
 1999 1450 1901 1382 1900 1380 c 2
 1900 1314 l 1
 1790 1314 l 1
 1790 1292 l 1
 1793 1292 l 1
 1700 1257 l 2
 1699 1257 1275 1256 1275 1256 c 2
 1274 1257 1238 1287 1238 1287 c 1
 1240 1286 955 1287 955 1287 c 1
 956 1287 905 1252 890 1243 c 1
 890 1245 889 1246 887 1246 c 2
 543 1246 l 2
 541 1246 517 1267 517 1267 c 1
 518 1267 121 1284 119 1283 c 2
 107 1268 l 1
 107 1268 100 1249 100 1248 c 1
 128 1123 l 0
 128 1122 128 705 129 703 c 2
 550 571 l 1
 550 577 l 1
 567 565 l 1
 567 565 783 472 785 471 c 1
 844 479 l 2
 844 483 l 1
 879 483 l 1
 879 2 l 1
 918 5 957 8 996 11 c 1
 995 11 1222 94 1223 96 c 2
 1223 481 l 1
 1291 481 l 2
 1292 481 1393 432 1393 432 c 2
 1395 430 1585 258 1585 258 c 0
 1619 293 1652 328 1686 363 c 1
 1686 363 1833 578 1845 596 c 0
 1880 596 1916 596 1951 596 c 0
 1952 596 2046 528 2048 528 c 2
 2131 546 l 1
 2131 547 2180 628 2180 628 c 1
 2180 628 2214 747 2214 748 c 1
 2214 748 2211 774 2210 782 c 1
 2395 782 l 1
 2387 578 l 1
 2387 251 l 1
 2403 202 l 2
 2403 199 2403 175 2403 174 c 2
 2541 174 l 1
 2541 202 l 2
 2541 203 2554 252 2554 252 c 1
 2554 593 l 1
 2554 593 2547 759 2546 782 c 1
 2658 782 l 1
 2658 848 l 1
 2658 848 2663 847 2665 849 c 2
 2674 873 l 1
 2674 873 2674 901 2674 910 c 2
 2842 910 l 1
 2842 827 l 1
 3158 827 l 1
 3258 843 l 2
 3260 843 4099 843 4100 843 c 2
 4100 1098 l 1
 3260 1098 l 2
 3157 1114 l 1
 2842 1114 l 1
 2842 1023 l 1
 2674 1023 l 1
 2674 1038 l 1
 2674 1038 2715 1038 2717 1039 c 2
 2807 1175 l 2
 2807 1175 2857 1232 2858 1233 c 1
 2857 1233 2858 1322 2858 1323 c 1
 2818 1323 2780 1322 2740 1322 c 1
 2740 1321 2718 1298 2671 1250 c 0
 2669 1249 2331 1249 2331 1249 c 2
 2330 1250 2299 1280 2288 1292 c 1
 2313 1292 l 1
 2313 1308 l 1
2740 1322 m 1
 2740 1322 l 1
2858 1233 m 1
 2858 1233 l 1
2674 873 m 1
 2674 873 l 1
2214 748 m 1
 2214 748 l 1
2131 546 m 1
 2131 546 l 1
785 471 m 1
 785 471 l 1
100 1248 m 1
 100 1248 l 1
107 1268 m 1
 107 1268 l 1
EndSplineSet
Validated: 37
EndChar

StartChar: five
Encoding: 53 53 16
Width: 3198
Flags: HW
LayerCount: 2
Fore
SplineSet
1470 348 m 1
 1471 348 1404 368 1403 368 c 1
 1403 368 1366 412 1365 413 c 1
 1355 481 l 2
 1321 569 l 2
 1309 586 l 2
 1308 587 1187 631 1187 631 c 2
 1186 631 1060 633 1060 633 c 1
 1061 633 967 678 967 678 c 2
 767 753 l 2
 634 778 l 2
 633 778 302 684 302 684 c 1
 303 684 217 705 215 705 c 1
 182 759 l 1
 139 864 l 1
 139 864 99 1039 100 1041 c 2
 206 1131 l 1
 205 1131 884 1153 884 1153 c 1
 1131 1109 l 1
 1130 1109 1287 1013 1287 1013 c 2
 1288 1012 1340 991 1440 959 c 0
 1441 959 1618 963 1620 962 c 2
 1667 879 l 1
 1688 879 l 1
 1675 881 1912 797 1914 796 c 0
 2002 767 2203 710 2482 631 c 1
 2615 579 l 1
 2760 491 l 1
 2872 402 l 1
 2987 283 l 1
 2987 283 3097 131 3098 130 c 1
 3056 121 3014 113 2972 104 c 1
 2843 95 l 1
 2661 95 l 1
 2497 116 l 1
 2301 154 l 1
 1784 321 l 1
 1784 321 1724 360 1722 361 c 1
 1709 384 l 2
 1689 409 l 2
 1688 409 1645 423 1637 425 c 2
 1557 371 l 1
 1558 371 1470 348 1470 348 c 1
215 705 m 1
 215 705 l 1
1365 413 m 1
 1365 413 l 1
1403 368 m 1
 1403 368 l 1
1722 361 m 1
 1722 361 l 1
1474 784 m 0
 1474 826 1444 859 1407 859 c 0
 1370 859 1340 826 1340 784 c 0
 1340 743 1370 708 1407 708 c 0
 1444 708 1474 743 1474 784 c 0
1440 785 m 0
 1440 766 1425 750 1406 750 c 0
 1386 750 1371 766 1371 785 c 0
 1371 805 1386 820 1406 820 c 0
 1425 820 1440 805 1440 785 c 0
EndSplineSet
Validated: 37
EndChar

StartChar: six
Encoding: 54 54 17
Width: 2700
Flags: HW
LayerCount: 2
Fore
SplineSet
1050 519 m 1
 980 602 l 1
 1004 605 l 1
 1006 655 1009 705 1011 755 c 1
 1093 790 l 1
 1093 788 1082 756 1081 752 c 2
 1115 643 l 2
 1181 560 l 1
 1212 560 l 1
 1205 574 1171 639 1171 638 c 1
 1171 726 l 1
 1171 726 1205 791 1205 792 c 2
 1427 792 l 1
 1427 536 l 2
 1424 531 1420 524 1417 519 c 2
 1050 519 l 1
1592 1090 m 1
 1620 1090 l 1
 1620 1033 l 1
 1592 1033 l 1
 1592 1090 l 1
1591 1198 m 1
 1621 1198 l 1
 1621 1177 l 1
 1591 1177 l 1
 1591 1198 l 1
1587 1332 m 1
 1588 1332 1618 1332 1620 1332 c 1
 1620 1303 l 1
 1587 1303 l 1
 1587 1332 l 1
1035 1322 m 1
 1035 1334 l 1
 1393 1334 l 1
 1393 1303 l 1
 1354 1303 l 1
 1354 1198 l 1
 1394 1198 l 1
 1394 1177 l 1
 1345 1177 l 1
 1345 1322 l 1
 1035 1322 l 1
1036 935 m 1
 1139 935 1242 935 1345 935 c 1
 1345 1090 l 1
 1397 1090 l 1
 1397 1089 1400 941 1400 920 c 1
 1400 920 1400 920 1090 920 c 0
 1071 920 1054 922 1036 923 c 1
 1036 935 l 1
1001 1441 m 1
 1001 1486 l 1
 951 1486 l 1
 951 1405 l 1
 818 1405 l 2
 817 1399 814 1395 812 1390 c 2
 594 1390 l 1
 594 1385 595 1317 596 1315 c 2
 698 1285 l 2
 699 1284 722 1248 722 1248 c 2
 722 1247 714 1202 714 1202 c 2
 714 1201 632 1129 632 1129 c 2
 631 1129 611 1129 611 1129 c 1
 556 1122 l 1
 557 1122 495 1087 495 1087 c 1
 495 1088 449 945 449 945 c 2
 284 692 l 1
 284 692 284 691 100 98 c 1
 168 65 237 32 305 -1 c 1
 304 -1 615 6 618 6 c 0
 631 104 643 202 656 300 c 0
 656 300 701 369 701 370 c 2
 668 452 l 2
 668 453 687 561 689 575 c 2
 909 593 l 1
 1016 473 l 1
 1015 473 1482 473 1486 473 c 1
 1539 534 l 1
 1539 533 1539 783 1539 805 c 1
 1555 808 l 1
 1555 797 l 1
 2108 797 l 1
 2108 797 2137 724 2138 723 c 2
 2299 723 l 1
 2299 985 l 1
 2352 925 l 1
 2351 926 2459 925 2546 925 c 1
 2546 1194 l 1
 2600 1194 l 1
 2600 1307 l 1
 2546 1307 l 1
 2546 1453 l 1
 2384 1453 l 1
 2384 1422 l 1
 2016 1422 l 1
 2016 1436 l 1
 1054 1436 l 2
 1054 1425 1053 1414 1053 1404 c 2
 1051 1404 l 1
 1051 1441 l 1
 1001 1441 l 1
1486 473 m 1
 1486 473 l 1
EndSplineSet
Validated: 37
EndChar

StartChar: seven
Encoding: 55 55 18
Width: 6200
Flags: HW
LayerCount: 2
Fore
SplineSet
2568 449 m 1
 2561 491 2554 534 2547 576 c 1
 2552 576 2699 580 2722 580 c 1
 2722 461 l 2
 2720 458 2654 408 2654 408 c 1
 2653 408 2588 400 2588 399 c 1
 2565 416 2540 432 2517 449 c 1
 2568 449 l 1
5094 869 m 1
 5221 869 5349 871 5476 872 c 1
 5522 854 l 1
 5520 846 l 1
 5094 846 l 1
 5094 869 l 1
3940 1156 m 2
 3922 1156 l 1
 3922 1108 l 1
 3922 1108 3914 1109 3915 1105 c 2
 3910 1085 l 1
 3895 1085 l 1
 3889 1107 l 2
 3884 1106 3873 1110 3872 1104 c 0
 3866 1080 3865 1080 3865 1047 c 1
 3865 1047 3802 1047 3799 1045 c 2
 3768 998 l 1
 3768 1052 l 1
 3661 1052 l 1
 3661 1072 l 1
 3659 1072 3456 1069 3455 1069 c 1
 3455 1047 l 1
 3408 1039 3364 1032 3282 1032 c 1
 3282 1012 l 1
 2795 1011 l 1
 2979 1031 l 1
 2986 1082 l 1
 2906 1082 2826 1082 2746 1082 c 1
 2746 1082 2744 1144 2742 1147 c 2
 2703 1169 l 1
 2703 1169 2659 1169 2657 1169 c 1
 2657 1169 2616 1145 2614 1142 c 2
 2610 1011 l 1
 2610 1011 2475 1011 2472 1010 c 2
 2457 991 l 1
 2458 991 2457 903 2457 883 c 2
 2388 882 l 1
 2390 883 2265 796 2265 796 c 1
 2265 796 2092 644 2073 627 c 2
 1806 692 l 1
 1888 955 l 1
 1888 1030 l 1
 671 1030 l 1
 671 971 l 1
 481 971 290 971 100 971 c 1
 100 79 l 1
 561 79 l 1
 561 64 l 1
 1079 64 l 1
 1079 362 l 1
 1600 368 l 1
 1699 94 l 1
 1699 94 1745 20 1748 18 c 0
 2094 8 2094 8 2194 9 c 1
 2244 19 l 2
 2244 66 l 1
 2195 75 l 1
 2286 398 l 2
 2288 400 2440 466 2461 475 c 1
 2462 446 l 1
 2463 447 2521 392 2522 391 c 1
 2522 391 2588 373 2589 373 c 1
 2653 382 l 1
 2653 382 2776 415 2779 416 c 1
 2779 416 2816 461 2817 463 c 1
 2817 463 2817 552 2817 573 c 2
 3018 578 l 1
 3018 578 2998 448 3000 444 c 2
 3017 435 l 1
 3053 580 l 1
 3065 581 l 1
 3160 70 l 1
 3767 194 l 1
 3693 599 l 1
 3693 599 3770 612 3773 615 c 2
 3781 645 l 1
 4069 597 l 1
 4866 598 l 1
 4864 597 4969 658 4969 658 c 2
 4974 658 5090 658 5091 658 c 2
 5100 715 l 1
 5700 715 l 1
 5700 844 l 1
 6100 844 l 1
 6100 992 l 1
 5632 992 l 1
 5632 1175 l 1
 5535 1175 l 1
 5535 991 l 1
 5478 976 l 2
 5477 976 5142 976 5101 976 c 0
 5101 991 5100 1005 5100 1019 c 1
 5100 1019 5089 1053 5088 1056 c 1
 5087 1054 5003 1076 5003 1076 c 1
 5004 1076 4373 1075 4362 1075 c 1
 4362 1074 4331 1047 4331 1047 c 2
 4329 1046 4303 1047 4293 1047 c 2
 4293 1086 l 1
 4258 1086 l 1
 4258 1086 4258 1137 4255 1141 c 2
 4174 1170 l 1
 4174 1348 l 1
 4027 1348 l 1
 4027 1320 4028 1291 4028 1263 c 0
 4027 1261 3951 1169 3940 1156 c 2
2654 408 m 1
 2654 408 l 1
2588 398 m 1
 2588 398 l 1
4361 1075 m 1
 4361 1075 l 1
5088 1056 m 1
 5088 1056 l 1
5100 1019 m 1
 5100 1019 l 1
2817 463 m 1
 2817 463 l 1
2779 416 m 1
 2779 416 l 1
2589 373 m 1
 2589 373 l 1
2522 391 m 1
 2522 391 l 1
2462 446 m 1
 2462 446 l 1
2464 476 m 1
 2464 476 l 1
2457 991 m 1
 2457 991 l 1
2657 1169 m 1
 2657 1169 l 1
2703 1169 m 1
 2703 1169 l 1
3865 1080 m 1
 3865 1080 l 1
EndSplineSet
Validated: 37
EndChar

StartChar: eight
Encoding: 56 56 19
Width: 6996
Flags: HW
LayerCount: 2
Fore
SplineSet
2520 431 m 1
 2513 472 2505 512 2498 553 c 1
 2500 553 2677 558 2678 558 c 1
 2678 443 l 2
 2676 439 2609 391 2609 391 c 0
 2607 391 2541 383 2541 382 c 1
 2518 398 2493 414 2470 431 c 1
 2520 431 l 1
2609 391 m 1
 2609 391 l 1
2541 382 m 1
 2541 382 l 1
5091 932 m 0
 5091 946 5091 960 5091 974 c 1
 5091 974 5078 1013 5074 1017 c 2
 5064 1018 l 1
 5064 1108 l 1
 4964 1108 l 1
 4964 1036 l 1
 4338 1035 l 1
 4338 1034 4305 1005 4305 1005 c 2
 4302 1004 4271 1004 4271 1005 c 2
 4270 1047 l 25
 4205 1047 l 26
 4204 1172 l 26
 4371 1172 l 26
 4371 1172 4393 1132 4416 1132 c 27
 4725 1132 4901 1130 5210 1130 c 25
 5209 1341 l 25
 4899 1341 4725 1340 4416 1340 c 27
 4393 1340 4371 1299 4371 1299 c 26
 4135 1299 l 26
 4135 1340 l 26
 4010 1340 l 26
 4010 1299 l 26
 3701 1298 l 26
 3701 1298 3684 1340 3662 1340 c 27
 3546 1340 3484 1340 3368 1340 c 25
 3368 1130 l 25
 3482 1130 3547 1130 3662 1130 c 27
 3684 1130 3701 1173 3701 1173 c 26
 3952 1172 l 26
 3953 1089 l 26
 3912 1089 l 26
 3912 1047 l 26
 3910 1046 l 2
 3904 1044 3910 1065 3901 1065 c 0
 3882 1065 3882 1065 3882 1065 c 1
 3882 1047 l 1
 3865 1047 l 2
 3862 1052 3864 1064 3856 1064 c 0
 3836 1064 3836 1058 3836 1006 c 1
 3836 1006 3771 1006 3767 1004 c 2
 3735 957 l 1
 3735 1014 l 1
 3630 1014 l 1
 3630 1032 l 1
 3628 1032 3417 1027 3416 1027 c 1
 3416 1006 l 1
 3339 994 3340 994 3245 994 c 1
 3245 973 l 1
 2940 990 l 1
 2946 1039 l 1
 2704 1039 l 1
 2704 1039 2704 1098 2702 1102 c 2
 2659 1125 l 1
 2659 1125 2613 1124 2611 1124 c 1
 2611 1123 2570 1102 2568 1098 c 0
 2560 1024 2560 1023 2560 972 c 1
 2424 971 l 1
 2424 970 2409 954 2408 953 c 1
 2409 953 2408 870 2408 849 c 2
 2339 848 l 1
 2342 848 2209 763 2209 763 c 1
 2209 763 2039 621 2018 604 c 2
 1776 665 l 1
 1859 916 l 1
 1859 990 l 1
 663 990 l 1
 663 937 l 1
 475 937 288 936 100 936 c 1
 100 73 l 1
 554 73 l 1
 554 73 549 56 559 59 c 2
 1062 59 l 1
 1062 348 l 1
 1567 351 l 1
 1666 89 l 1
 1666 90 1713 17 1717 15 c 0
 2115 4 2114 3 2194 17 c 1
 2194 66 l 1
 2145 71 l 1
 2235 382 l 2
 2238 385 2386 444 2412 454 c 1
 2413 426 l 1
 2414 427 2473 374 2475 373 c 1
 2475 373 2540 355 2542 355 c 1
 2606 366 l 1
 2606 366 2732 398 2736 399 c 1
 2736 399 2772 442 2774 444 c 1
 2773 444 2774 528 2774 549 c 2
 2975 553 l 1
 2954 425 l 1
 2979 415 l 1
 3013 555 l 1
 3024 557 l 1
 3120 65 l 1
 3737 185 l 1
 3661 574 l 1
 3661 574 3739 587 3743 590 c 2
 3751 619 l 1
 4039 573 l 1
 4039 573 4842 573 4849 573 c 1
 4952 631 l 1
 5075 631 l 1
 5085 686 l 1
 5213 686 l 1
 5213 820 l 1
 5463 820 6532 820 6782 820 c 0
 6784 820 6831 801 6832 801 c 1
 6893 801 6896 802 6896 802 c 10
 6895 948 l 1
 6873 948 6851 948 6829 948 c 1
 6783 932 l 26
 6744 932 l 26
 6697 963 l 26
 6679 963 l 26
 6679 932 l 18
 6679 932 5163 932 5091 932 c 0
5091 974 m 1
 5091 974 l 1
6828 948 m 1
 6828 948 l 1
6832 802 m 1
 6832 802 l 1
4849 573 m 1
 4849 573 l 1
2774 444 m 1
 2774 444 l 1
2736 399 m 1
 2736 399 l 1
2542 355 m 1
 2542 355 l 1
2475 373 m 1
 2475 373 l 1
2413 426 m 1
 2413 426 l 1
2416 456 m 1
 2416 456 l 1
1859 916 m 1
 1859 916 l 1
2408 953 m 1
 2408 953 l 1
2423 971 m 1
 2423 971 l 1
2610 1124 m 1
 2610 1124 l 1
2659 1125 m 1
 2659 1125 l 1
3836 1046 m 1
 3836 1046 l 1
4337 1035 m 1
 4337 1035 l 1
EndSplineSet
Validated: 41
EndChar

StartChar: nine
Encoding: 57 57 20
Width: 8000
Flags: HW
LayerCount: 2
Fore
SplineSet
2518 435 m 1
 2511 476 2504 516 2496 557 c 1
 2499 557 2674 562 2676 562 c 1
 2676 447 l 2
 2674 443 2606 395 2606 395 c 0
 2604 395 2539 387 2539 386 c 1
 2515 402 2491 418 2468 435 c 1
 2518 435 l 1
2606 395 m 1
 2606 395 l 1
2539 386 m 1
 2539 386 l 1
5059 1021 m 1
 5059 1138 l 1
 4959 1138 l 1
 4959 1040 l 1
 4334 1039 l 1
 4334 1038 4301 1009 4301 1009 c 2
 4299 1008 4277 1009 4267 1009 c 2
 4267 1051 l 1
 3906 1051 l 2
 3903 1056 3907 1069 3898 1069 c 0
 3879 1069 3879 1069 3879 1069 c 1
 3879 1050 l 1
 3862 1050 l 2
 3859 1055 3861 1067 3853 1067 c 0
 3833 1067 3832 1062 3832 1010 c 1
 3832 1010 3768 1009 3764 1007 c 2
 3764 1007 3733 960 3732 960 c 1
 3732 1017 l 1
 3626 1017 l 1
 3626 1036 l 1
 3624 1036 3414 1030 3413 1030 c 1
 3413 1009 l 1
 3337 997 3337 997 3241 997 c 1
 3241 977 l 1
 2938 993 l 1
 2943 1042 l 1
 2701 1042 l 1
 2701 1042 2701 1100 2699 1105 c 2
 2657 1128 l 1
 2657 1128 2611 1128 2608 1128 c 1
 2608 1127 2568 1105 2566 1101 c 0
 2558 1027 2558 1027 2558 976 c 1
 2422 974 l 1
 2422 973 2407 958 2406 957 c 1
 2407 957 2406 874 2406 853 c 2
 2337 852 l 1
 2340 853 2207 766 2207 766 c 1
 2207 766 2037 625 2016 608 c 2
 1775 669 l 1
 1858 920 l 1
 1858 993 l 1
 663 993 l 1
 663 940 l 1
 475 940 288 939 100 939 c 1
 100 77 l 1
 553 77 l 1
 553 77 549 60 559 63 c 2
 1061 63 l 1
 1061 352 l 1
 1566 355 l 1
 1665 93 l 1
 1665 94 1711 21 1715 19 c 0
 2113 8 2113 7 2192 21 c 1
 2192 71 l 1
 2143 75 l 1
 2233 386 l 2
 2236 389 2384 448 2410 458 c 1
 2411 430 l 1
 2412 431 2472 378 2473 377 c 1
 2473 377 2538 359 2540 359 c 1
 2604 370 l 1
 2604 370 2729 402 2733 403 c 1
 2733 404 2771 446 2772 448 c 1
 2771 448 2772 532 2772 553 c 2
 2972 557 l 1
 2951 429 l 1
 2977 419 l 1
 3009 559 l 1
 3021 560 l 1
 3116 70 l 1
 3734 189 l 1
 3657 578 l 1
 3657 578 3735 590 3739 594 c 2
 3747 623 l 1
 4036 577 l 1
 4035 577 4837 577 4844 577 c 1
 4947 634 l 1
 5070 634 l 1
 5081 690 l 1
 5208 690 l 1
 5208 823 l 1
 5458 823 5708 824 5958 824 c 0
 5959 824 6007 806 6008 806 c 1
 6008 806 6056 806 6072 806 c 2
 6072 712 l 1
 7900 712 l 1
 7900 1052 l 1
 6071 1052 l 1
 6071 952 l 1
 6049 952 6026 952 6004 952 c 1
 5955 935 l 2
 5954 935 5158 935 5086 935 c 0
 5086 949 5086 963 5086 977 c 1
 5086 977 5074 1016 5070 1020 c 2
 5059 1021 l 1
5086 977 m 1
 5086 977 l 1
6004 952 m 1
 6004 952 l 1
6008 806 m 1
 6008 806 l 1
4844 577 m 1
 4844 577 l 1
2772 448 m 1
 2772 448 l 1
2734 403 m 1
 2734 403 l 1
2540 359 m 1
 2540 359 l 1
2473 377 m 1
 2473 377 l 1
2411 430 m 1
 2411 430 l 1
2414 459 m 1
 2414 459 l 1
1858 920 m 1
 1858 920 l 1
2405 957 m 1
 2405 957 l 1
2421 974 m 1
 2421 974 l 1
2608 1128 m 1
 2608 1128 l 1
2656 1128 m 1
 2656 1128 l 1
3832 1050 m 1
 3832 1050 l 1
4333 1039 m 1
 4333 1039 l 1
EndSplineSet
Validated: 37
EndChar

StartChar: colon
Encoding: 58 58 21
Width: 1948
Flags: HW
LayerCount: 2
Fore
SplineSet
981 677 m 1
 864 714 l 2
 863 715 836 874 836 874 c 2
 836 875 919 943 928 950 c 1
 928 948 911 878 911 875 c 2
 911 875 911 812 911 811 c 2
 911 811 972 746 973 746 c 2
 999 747 l 1
 995 758 976 808 976 808 c 1
 976 876 l 1
 983 904 990 932 996 961 c 1
 1132 961 l 2
 1133 960 1177 885 1177 885 c 1
 1177 816 1177 746 1177 677 c 1
 981 677 l 1
133 1145 m 1
 133 959 l 1
 140 959 148 960 156 960 c 0
 280 881 l 2
 280 880 313 780 313 780 c 2
 313 779 168 476 168 476 c 1
 113 295 l 1
 113 295 99 121 100 120 c 2
 247 63 l 1
 247 63 247 62 710 0 c 0
 711 9 713 18 714 26 c 1
 714 25 651 117 651 117 c 2
 651 118 651 289 651 289 c 2
 651 289 756 618 762 638 c 1
 979 651 l 2
 979 651 1129 651 1159 651 c 1
 1159 651 1139 639 1139 638 c 2
 1139 571 l 1
 1642 466 l 1
 1658 511 1674 556 1690 601 c 0
 1691 602 1809 642 1810 643 c 2
 1810 643 1848 884 1848 885 c 2
 1777 920 l 1
 1796 1037 l 1
 1796 1450 l 1
 1684 1450 1572 1449 1460 1449 c 1
 1424 1422 l 2
 1424 1422 1195 1397 1191 1397 c 1
 1187 1393 l 0
 1186 1393 385 1393 385 1393 c 2
 385 1393 286 1438 285 1438 c 1
 285 1438 253 1437 252 1436 c 2
 237 1392 l 2
 133 1145 l 1
285 1438 m 1
 285 1438 l 1
1191 1397 m 1
 1191 1397 l 1
EndSplineSet
Validated: 37
EndChar

StartChar: semicolon
Encoding: 59 59 22
Width: 3700
Flags: HW
LayerCount: 2
Fore
SplineSet
1898 963 m 0
 1898 963 1907 992 1914 1014 c 1
 1991 1014 l 1
 2025 974 l 1
 2026 943 2025 910 2025 878 c 1
 2000 859 l 1
 1954 858 1906 858 1859 858 c 1
 1822 899 l 1
 1821 922 1821 949 1821 973 c 1
 1828 987 1837 1000 1844 1014 c 1
 1867 1014 l 1
 1860 967 1861 966 1861 921 c 1
 1899 875 l 1
 1915 881 l 1
 1898 921 l 1
 1898 935 1898 949 1898 963 c 0
1298 541 m 1
 447 541 l 1
 223 607 l 1
 202 791 l 1
 209 852 216 913 223 974 c 1
 445 1039 l 1
 728 1039 1012 1040 1295 1040 c 1
 1295 1014 l 1
 1348 1014 l 1
 1367 987 l 1
 1570 976 l 1
 1579 969 1586 959 1595 951 c 0
 1596 950 1587 897 1587 897 c 1
 1535 713 l 2
 1535 710 1529 712 1529 712 c 1
 1502 673 l 1
 1502 582 l 1
 1483 568 l 1
 1422 567 1360 568 1298 568 c 1
 1298 541 l 1
2398 1083 m 2
 2425 1083 l 1
 2425 1074 l 1
 2395 1074 l 1
 2395 1084 2396 1084 2398 1083 c 2
2396 1164 m 1
 2396 1183 l 1
 2424 1183 l 1
 2424 1164 l 1
 2396 1164 l 1
2479 1165 m 1
 2480 1184 l 1
 2530 1184 l 1
 2530 1165 l 1
 2479 1165 l 1
2043 1266 m 1
 2043 1307 l 1
 1811 1307 l 1
 1811 1251 l 1
 1787 1251 l 1
 1787 1227 l 1
 1765 1227 l 1
 1765 1251 l 1
 1738 1251 l 1
 1738 1227 l 1
 1713 1227 l 1
 1713 1251 l 1
 1687 1251 l 1
 1687 1228 l 1
 1662 1228 l 1
 1662 1251 l 1
 1636 1251 l 1
 1636 1227 l 1
 1616 1227 l 1
 1616 1251 l 1
 1589 1251 l 1
 1589 1227 l 1
 1545 1227 l 1
 1525 1271 l 1
 1373 1271 l 1
 1364 1255 1353 1241 1344 1225 c 1
 1344 1133 l 1
 1290 1133 l 1
 1290 1115 l 1
 130 1115 l 1
 100 1037 l 1
 118 787 l 2
 118 777 99 546 100 544 c 0
 130 466 131 465 131 465 c 1
 1294 465 l 1
 1294 452 l 1
 1594 452 l 1
 1594 0 l 1
 1634 0 1676 -1 1716 1 c 1
 1769 53 l 1
 1769 564 l 1
 1790 564 l 1
 1790 616 1790 668 1790 720 c 0
 1790 720 1814 838 1818 856 c 1
 1862 844 l 0
 1911 844 1962 843 2010 844 c 1
 2040 866 l 1
 2040 888 2039 912 2041 933 c 1
 2216 933 l 1
 2217 928 2215 920 2217 916 c 2
 2233 903 l 1
 2234 833 l 1
 2211 748 l 2
 2211 542 l 1
 2377 542 l 1
 2377 662 2377 753 2377 753 c 2
 2355 836 l 1
 2355 903 l 1
 2374 917 l 1
 2374 932 l 1
 2435 932 l 1
 2455 908 l 1
 2455 832 l 1
 2515 832 l 1
 2515 880 2515 928 2515 975 c 1
 2493 1014 l 1
 2493 1078 l 1
 2526 1078 l 1
 2526 1061 2526 1042 2527 1025 c 1
 2544 1008 l 1
 2648 1008 2754 1008 2858 1008 c 1
 2886 1025 l 1
 3600 1025 l 1
 3600 1255 l 1
 2882 1255 l 1
 2857 1269 l 1
 2753 1269 2646 1270 2543 1269 c 0
 2538 1265 2536 1258 2529 1257 c 2
 2485 1257 l 1
 2485 1273 l 1
 2419 1273 l 1
 2419 1256 l 1
 2401 1256 l 1
 2401 1266 l 1
 2333 1266 l 2
 2333 1271 2333 1276 2332 1280 c 0
 2329 1282 2327 1287 2323 1288 c 0
 2310 1288 2297 1289 2285 1287 c 0
 2282 1284 2277 1280 2275 1276 c 2
 2275 1266 l 1
 2043 1266 l 1
EndSplineSet
Validated: 41
EndChar

StartChar: less
Encoding: 60 60 23
Width: 2667
Flags: HW
LayerCount: 2
Fore
SplineSet
2567 1227 m 25
 2567 1127 l 1
 2526 1127 l 17
 2526 1125 2526 1087 2526 1078 c 1
 2493 1078 l 1
 2493 1014 l 1
 2515 975 l 1
 2515 928 2515 880 2515 832 c 1
 2455 832 l 1
 2455 908 l 1
 2435 932 l 1
 2374 932 l 1
 2374 917 l 1
 2355 903 l 1
 2355 836 l 1
 2377 753 l 2
 2377 753 2377 662 2377 542 c 1
 2211 542 l 1
 2211 748 l 2
 2234 833 l 1
 2233 903 l 1
 2217 916 l 2
 2215 920 2217 928 2216 933 c 1
 2041 933 l 1
 2039 912 2040 888 2040 866 c 1
 2010 844 l 1
 1962 843 1911 844 1862 844 c 0
 1818 856 l 1
 1814 838 1790 720 1790 720 c 0
 1790 668 1790 616 1790 564 c 1
 1769 564 l 1
 1769 53 l 1
 1716 1 l 1
 1676 -1 1634 0 1594 0 c 1
 1594 452 l 1
 1294 452 l 1
 1294 465 l 1
 131 465 l 1
 131 465 130 466 100 544 c 0
 99 546 118 777 118 787 c 2
 100 1037 l 1
 130 1115 l 1
 1290 1115 l 1
 1290 1133 l 1
 1344 1133 l 1
 1344 1225 l 1
 1353 1241 1364 1255 1373 1271 c 1
 1525 1271 l 1
 1545 1227 l 1
 1589 1227 l 1
 1589 1251 l 1
 1616 1251 l 1
 1616 1227 l 1
 1636 1227 l 1
 1636 1251 l 1
 1662 1251 l 1
 1662 1228 l 1
 1687 1228 l 1
 1687 1251 l 1
 1713 1251 l 1
 1713 1227 l 1
 1738 1227 l 1
 1738 1251 l 1
 1765 1251 l 1
 1765 1227 l 1
 1787 1227 l 1
 1787 1251 l 1
 1811 1251 l 1
 1811 1307 l 1
 2043 1307 l 1
 2043 1266 l 1
 2275 1266 l 1
 2275 1276 l 2
 2277 1280 2282 1284 2285 1287 c 0
 2297 1289 2310 1288 2323 1288 c 0
 2327 1287 2329 1282 2332 1280 c 0
 2333 1276 2333 1271 2333 1266 c 2
 2401 1266 l 1
 2401 1256 l 1
 2419 1256 l 1
 2419 1273 l 1
 2485 1273 l 1
 2485 1257 l 1
 2529 1257 l 2
 2529 1227 l 9
 2567 1227 l 25
1898 963 m 0
 1898 949 1898 935 1898 921 c 1
 1915 881 l 1
 1899 875 l 1
 1861 921 l 1
 1861 966 1860 967 1867 1014 c 1
 1844 1014 l 1
 1837 1000 1828 987 1821 973 c 1
 1821 949 1821 922 1822 899 c 1
 1859 858 l 1
 1906 858 1954 858 2000 859 c 1
 2025 878 l 1
 2025 910 2026 943 2025 974 c 1
 1991 1014 l 1
 1914 1014 l 1
 1907 992 1898 963 1898 963 c 0
1298 541 m 1
 1298 568 l 1
 1360 568 1422 567 1483 568 c 1
 1502 582 l 1
 1502 673 l 1
 1529 712 l 1
 1529 712 1535 710 1535 713 c 2
 1587 897 l 1
 1587 897 1596 950 1595 951 c 0
 1586 959 1579 969 1570 976 c 1
 1367 987 l 1
 1348 1014 l 1
 1295 1014 l 1
 1295 1040 l 1
 1012 1040 728 1039 445 1039 c 1
 223 974 l 1
 216 913 209 852 202 791 c 1
 223 607 l 1
 447 541 l 1
 1298 541 l 1
2398 1083 m 2
 2396 1084 2395 1084 2395 1074 c 1
 2425 1074 l 1
 2425 1083 l 1
 2398 1083 l 2
2396 1164 m 1
 2424 1164 l 1
 2424 1183 l 1
 2396 1183 l 1
 2396 1164 l 1
2479 1165 m 1
 2530 1165 l 1
 2530 1184 l 1
 2480 1184 l 1
 2479 1165 l 1
EndSplineSet
Validated: 33
EndChar

StartChar: equal
Encoding: 61 61 24
Width: 4200
Flags: HW
LayerCount: 2
Fore
SplineSet
1996 1302 m 2
 1994 1303 1967 1359 1967 1359 c 2
 1958 1359 1923 1359 1922 1359 c 2
 1911 1352 l 2
 1909 1352 1903 1355 1898 1358 c 1
 1917 1369 l 1
 1996 1369 2075 1369 2154 1369 c 1
 2120 1303 l 2
 2118 1302 2078 1301 2070 1301 c 1
 2070 1360 l 1
 2038 1360 l 1
 2038 1302 l 1
 1996 1302 l 2
1912 790 m 1
 1912 788 1904 751 1904 748 c 2
 1904 748 1910 667 1910 666 c 2
 1938 627 l 1
 1942 627 l 1
 1939 636 1928 663 1928 663 c 1
 1928 664 1928 744 1928 744 c 1
 1966 790 l 2
 1968 791 2094 791 2126 791 c 1
 2126 791 2132 613 2132 612 c 1
 1853 612 l 1
 1853 771 l 1
 1867 789 l 2
 1869 790 1902 790 1912 790 c 1
1928 663 m 1
 1928 663 l 1
1928 744 m 1
 1928 744 l 1
1649 1644 m 0
 1647 1644 1647 1643 1647 1641 c 2
 1647 1430 l 1
 1706 1430 1763 1430 1822 1430 c 1
 1822 1431 1835 1444 1835 1444 c 2
 1836 1444 1859 1444 1868 1444 c 1
 1864 1422 l 1
 1770 1422 l 1
 1751 1395 l 1
 1665 1395 l 1
 1665 1379 l 1
 1588 1385 l 1
 1582 1332 1582 1332 1582 1295 c 1
 1518 1295 l 1
 1518 1248 l 1
 1546 1248 1574 1249 1602 1249 c 1
 1239 1247 l 1
 1238 1341 l 1
 1237 1341 1216 1374 1213 1374 c 2
 560 1373 l 1
 560 1372 530 1341 529 1341 c 1
 529 1341 507 1261 504 1247 c 2
 272 1247 l 1
 271 1252 l 1
 262 1260 l 1
 262 1259 162 1260 161 1260 c 0
 149 1234 139 1207 127 1181 c 1
 107 1114 l 1
 107 1115 100 689 100 689 c 1
 100 689 99 689 119 583 c 0
 121 583 268 584 268 584 c 0
 270 595 273 605 275 616 c 2
 286 618 l 1
 286 597 287 583 287 558 c 1
 323 559 l 0
 323 580 323 602 323 623 c 1
 505 652 l 2
 506 652 530 643 530 643 c 2
 532 639 646 -2 646 -3 c 1
 1015 76 l 1
 905 715 l 1
 962 746 l 1
 962 896 l 1
 1111 976 l 2
 1112 976 1446 977 1446 977 c 2
 1447 977 1541 905 1552 896 c 0
 1552 859 1552 821 1552 784 c 1
 1552 785 1565 737 1565 737 c 2
 1565 735 1492 594 1492 594 c 2
 1406 490 l 1
 1406 491 1279 173 1278 170 c 1
 1361 169 1613 166 1616 166 c 0
 1664 266 1712 365 1759 464 c 1
 1759 463 1739 553 1736 570 c 1
 1854 594 l 1
 2355 594 l 1
 2356 695 2358 796 2359 897 c 0
 2359 898 2411 976 2413 980 c 0
 2413 980 2413 984 2413 987 c 1
 2563 980 l 1
 2563 921 l 1
 2551 921 l 1
 2551 845 l 1
 2679 845 l 1
 2670 614 l 1
 2670 231 l 1
 2670 232 2685 176 2685 176 c 2
 2685 173 2685 141 2685 140 c 2
 2846 140 l 1
 2846 152 2846 165 2846 177 c 0
 2846 178 2864 235 2864 235 c 1
 2864 234 2864 616 2864 616 c 1
 2864 616 2854 817 2853 844 c 1
 3152 844 l 1
 3152 901 l 1
 3516 901 l 1
 3516 1058 l 1
 3628 1058 l 1
 3628 1074 l 1
 3799 1074 l 1
 3812 1052 l 1
 4100 1052 l 1
 4100 1196 l 1
 3813 1196 l 1
 3801 1175 l 1
 3627 1175 l 1
 3627 1274 l 1
 3623 1274 l 1
 3623 1322 3623 1370 3623 1418 c 1
 3617 1440 l 0
 3585 1488 l 2
 3554 1488 l 1
 3554 1415 3554 1343 3554 1270 c 0
 3554 1270 3530 1189 3526 1175 c 2
 3515 1175 l 1
 3515 1321 l 2
 3514 1321 3507 1334 3504 1334 c 0
 2575 1334 2575 1334 2575 1334 c 2
 2572 1328 2568 1322 2565 1316 c 1
 2565 1316 2565 1283 2565 1273 c 2
 2412 1266 l 1
 2412 1280 l 1
 2507 1280 l 1
 2507 1341 l 1
 2359 1341 l 1
 2359 1368 l 1
 2339 1368 l 1
 2339 1422 l 1
 2124 1422 l 1
 2124 1433 l 1
 2224 1429 2325 1424 2425 1420 c 1
 2436 1452 2436 1452 2503 1654 c 1
 2125 1640 l 1
 2125 1640 2125 1647 2123 1647 c 2
 2096 1666 l 1
 2097 1666 1931 1665 1931 1665 c 1
 1903 1642 l 1
 1903 1642 1902 1635 1902 1632 c 2
 1838 1629 l 2
 1836 1630 1821 1644 1821 1644 c 1
 1821 1643 1649 1644 1649 1644 c 0
2565 1316 m 1
 2565 1316 l 1
3515 1321 m 1
 3515 1321 l 1
3617 1440 m 1
 3617 1440 l 1
3623 1418 m 1
 3623 1418 l 1
2413 980 m 1
 2413 980 l 1
262 1260 m 1
 262 1260 l 1
271 1252 m 1
 271 1252 l 1
529 1341 m 1
 529 1341 l 1
560 1373 m 1
 560 1373 l 1
1238 1341 m 1
 1238 1341 l 1
1605 1244 m 1
 1605 1244 l 1
1822 1430 m 1
 1822 1430 l 1
1821 1644 m 1
 1821 1644 l 1
1903 1642 m 1
 1903 1642 l 1
EndSplineSet
Validated: 37
EndChar

StartChar: greater
Encoding: 62 62 25
Width: 4200
Flags: HW
LayerCount: 2
Fore
SplineSet
1443 1178 m 1
 1385 1178 l 1
 1385 1135 l 1
 1410 1135 1436 1135 1461 1135 c 1
 1132 1134 l 1
 1132 1219 l 1
 1109 1248 l 1
 1111 1247 525 1247 518 1247 c 1
 518 1247 490 1220 489 1219 c 1
 489 1219 469 1146 466 1134 c 2
 255 1134 l 1
 255 1137 l 1
 247 1145 l 1
 247 1145 157 1145 155 1144 c 2
 124 1073 l 1
 106 1013 l 1
 106 1014 100 628 100 628 c 1
 100 628 100 628 118 532 c 0
 119 532 250 532 252 534 c 2
 258 562 l 1
 269 563 l 1
 269 544 269 532 269 509 c 1
 302 510 l 0
 302 529 303 549 303 568 c 2
 467 594 l 2
 468 594 490 586 490 586 c 2
 492 582 594 1 594 0 c 1
 929 72 l 1
 830 651 l 1
 830 651 880 679 881 681 c 2
 881 815 l 1
 1017 888 l 2
 1018 888 1320 888 1320 888 c 2
 1321 888 1416 816 1416 816 c 2
 1417 814 1416 714 1416 714 c 1
 1427 671 l 2
 1427 669 1362 541 1362 541 c 2
 1284 448 l 1
 1284 449 1169 160 1168 157 c 1
 1176 157 1473 154 1475 155 c 2
 1603 423 l 1
 1603 422 1585 504 1582 520 c 1
 1690 541 l 1
 2144 541 l 1
 2145 633 2146 724 2147 816 c 0
 2147 817 2194 888 2196 891 c 0
 2196 891 2196 895 2196 897 c 1
 2332 891 l 1
 2332 838 l 1
 2322 838 l 1
 2322 769 l 1
 2437 769 l 1
 2429 560 l 1
 2430 213 l 1
 2430 214 2443 162 2443 162 c 2
 2443 159 2443 131 2443 130 c 2
 2589 130 l 1
 2589 141 2589 152 2589 163 c 0
 2605 216 l 1
 2605 562 l 1
 2605 562 2596 744 2595 768 c 1
 2866 768 l 1
 2866 819 l 1
 3196 819 l 1
 3196 962 l 1
 3297 962 l 1
 3297 976 l 1
 3451 976 l 1
 3451 927 3452 878 3452 829 c 0
 3458 829 4099 831 4100 831 c 1
 4100 835 4098 1205 4098 1206 c 0
 4092 1206 3454 1207 3453 1207 c 0
 3453 1161 3453 1114 3453 1068 c 1
 3297 1068 l 1
 3297 1157 l 1
 3293 1157 l 1
 3293 1200 3293 1245 3293 1288 c 1
 3288 1308 l 0
 3288 1308 3259 1351 3257 1352 c 2
 3230 1352 l 1
 3230 1286 3231 1220 3231 1154 c 0
 3231 1153 3209 1080 3205 1068 c 2
 3195 1068 l 1
 3195 1200 l 1
 3185 1212 l 1
 3185 1211 2344 1212 2342 1211 c 2
 2334 1196 l 1
 2334 1196 2334 1166 2334 1157 c 2
 2196 1150 l 1
 2196 1163 l 1
 2282 1163 l 1
 2282 1218 l 1
 2240 1218 2196 1219 2154 1219 c 1
 2154 1294 2155 1368 2155 1443 c 0
 2154 1443 2029 1445 2028 1445 c 0
 2028 1427 2027 1409 2027 1392 c 2
 2027 1392 2012 1347 1969 1302 c 0
 1967 1302 1905 1302 1755 1302 c 1
 1755 1280 1755 1258 1755 1237 c 1
 1449 1259 l 1
 1444 1211 1443 1211 1443 1178 c 1
1688 560 m 2
 1688 702 l 1
 1702 719 l 1
 1716 719 1728 719 1742 719 c 1
 1742 718 1734 684 1734 681 c 2
 1734 681 1740 608 1740 607 c 2
 1766 571 l 1
 1770 572 l 1
 1767 581 1757 605 1757 605 c 1
 1757 606 1757 678 1757 678 c 1
 1791 719 l 1
 1840 719 1888 720 1937 720 c 1
 1937 720 1941 559 1941 558 c 1
 1691 558 l 2
 1689 558 1688 558 1688 560 c 2
1688 702 m 1
 1688 702 l 1
1702 719 m 1
 1702 719 l 1
1757 605 m 1
 1757 605 l 1
1757 678 m 1
 1757 678 l 1
2334 1196 m 1
 2334 1196 l 1
3185 1212 m 1
 3185 1212 l 1
3195 1200 m 1
 3195 1200 l 1
3288 1308 m 1
 3288 1308 l 1
3293 1288 m 1
 3293 1288 l 1
2196 891 m 1
 2196 891 l 1
247 1145 m 1
 247 1145 l 1
255 1138 m 1
 255 1138 l 1
489 1219 m 1
 489 1219 l 1
517 1247 m 1
 517 1247 l 1
1132 1219 m 1
 1132 1219 l 1
1464 1131 m 1
 1464 1131 l 1
EndSplineSet
Validated: 37
EndChar

StartChar: at
Encoding: 64 64 26
Width: 6200
Flags: HW
LayerCount: 2
Fore
SplineSet
2018 444 m 1
 2017 485 2016 525 2015 566 c 1
 2016 566 2198 567 2200 567 c 1
 2200 559 2195 448 2196 448 c 1
 2158 398 l 2
 2155 396 1995 401 1997 401 c 1
 1976 415 1955 429 1934 444 c 1
 2018 444 l 1
2891 818 m 1
 2892 818 3043 819 3047 819 c 1
 3047 789 l 1
 2891 789 l 1
 2891 818 l 1
3950 875 m 1
 3951 875 4036 876 4036 876 c 1
 4036 839 4056 843 4056 818 c 2
 4009 818 l 1
 4009 844 l 1
 3950 844 l 1
 3950 875 l 1
199 961 m 1
 200 961 834 961 840 961 c 1
 840 940 l 1
 825 940 l 1
 825 883 l 1
 775 883 l 1
 775 749 l 1
 826 749 l 1
 826 689 l 1
 840 689 l 1
 840 668 l 1
 199 668 l 1
 199 961 l 1
2196 448 m 1
 2196 448 l 1
4055 829 m 1
 4055 829 l 1
2050 1301 m 1
 2050 1137 l 1
 1893 1136 l 1
 1847 1105 l 2
 1842 1105 1271 1105 1270 1105 c 2
 1270 889 l 1
 1202 889 l 1
 1202 947 l 1
 1108 947 l 1
 1108 953 l 1
 1244 953 l 1
 1244 1027 l 1
 1108 1027 l 1
 1108 1043 l 1
 833 1043 l 1
 833 1026 l 1
 207 1026 l 1
 207 1073 l 1
 100 1073 l 1
 100 505 l 1
 207 505 l 1
 207 600 l 1
 832 600 l 1
 832 600 827 585 836 587 c 2
 1109 587 l 1
 1109 599 l 1
 1245 599 l 1
 1245 677 l 1
 1108 677 l 1
 1108 684 l 1
 1202 684 l 1
 1202 743 l 1
 1271 743 l 1
 1272 630 l 1
 1273 630 1346 558 1346 558 c 1
 1344 559 1581 558 1610 558 c 2
 1634 492 l 1
 1607 446 l 2
 1607 445 1464 303 1464 303 c 1
 1469 309 1361 166 1359 147 c 2
 1371 112 l 1
 1368 114 1669 2 1674 3 c 2
 1703 43 l 1
 1702 43 1702 126 1702 126 c 2
 1703 128 1866 374 1884 401 c 2
 1984 376 l 1
 1983 376 2176 377 2179 378 c 2
 2228 447 l 1
 2227 447 2228 537 2228 558 c 2
 2269 558 l 1
 2269 667 l 1
 2307 667 l 1
 2307 519 2307 371 2307 223 c 1
 2307 224 2345 85 2348 82 c 2
 2348 82 2729 53 2733 55 c 2
 2832 228 l 1
 2832 227 2841 358 2842 478 c 1
 3074 478 l 1
 3074 478 3685 499 3689 502 c 2
 3699 529 l 1
 3699 528 3699 654 3699 678 c 2
 4016 678 l 1
 4016 704 l 1
 4047 704 l 1
 4047 684 l 1
 4181 684 l 1
 4181 705 l 1
 4226 705 4272 705 4317 705 c 0
 4318 705 4348 696 4349 696 c 1
 4395 695 l 1
 4395 835 l 1
 4388 835 4342 835 4342 835 c 1
 4321 826 l 2
 4320 826 4202 825 4180 826 c 1
 4182 833 4201 857 4201 868 c 1
 5466 868 l 1
 5466 851 l 1
 6100 851 l 1
 6100 1013 l 1
 5466 1013 l 1
 5466 996 l 1
 4200 996 l 1
 4200 1013 l 1
 4180 1013 l 1
 4168 1068 l 1
 4057 1068 l 1
 4046 1016 l 1
 4028 1012 l 1
 4028 996 l 1
 3957 996 l 1
 3957 1108 l 1
 3041 1108 l 1
 3041 1019 l 1
 2898 1019 l 1
 2898 1137 l 1
 2304 1137 l 1
 2303 1150 l 1
 2303 1148 2217 1299 2214 1301 c 2
 2050 1301 l 1
4201 863 m 1
 4201 863 l 1
4342 835 m 1
 4342 835 l 1
4349 695 m 1
 4349 695 l 1
2835 505 m 1
 2835 505 l 1
2228 447 m 1
 2228 447 l 1
1703 43 m 1
 1703 43 l 1
1272 630 m 1
 1272 630 l 1
1893 1136 m 1
 1893 1136 l 1
EndSplineSet
Validated: 37
EndChar

StartChar: A
Encoding: 65 65 27
Width: 2196
Flags: HW
LayerCount: 2
Fore
SplineSet
107 803 m 1
 84 760 109 712 144 660 c 0
 194 586 236 550 280 561 c 1
 524 733 l 2
 525 733 546 736 551 737 c 2
 612 656 l 1
 610 646 l 2
 609 646 366 475 366 475 c 1
 345 421 370 383 398 339 c 0
 401 334 405 328 409 322 c 0
 412 319 416 313 420 307 c 0
 446 271 487 218 545 235 c 1
 783 403 l 2
 783 403 812 409 817 410 c 2
 829 398 l 1
 615 245 l 1
 579 203 620 143 644 106 c 0
 652 93 653 93 663 79 c 0
 697 35 736 -16 792 5 c 1
 1030 172 l 2
 1076 181 l 2
 1077 181 1088 174 1089 174 c 1
 1105 178 l 1
 1186 201 l 1
 1186 201 1792 629 1797 632 c 1
 1797 632 1802 659 1802 660 c 1
 1802 660 1799 677 1798 681 c 2
 1809 689 l 1
 1840 733 l 2
 2096 915 l 1
 2111 952 2045 1056 2030 1077 c 0
 2026 1081 2020 1088 2013 1096 c 0
 1982 1133 1936 1188 1907 1171 c 1
 1656 992 l 2
 1656 992 1630 984 1615 979 c 1
 1850 1144 l 1
 1870 1191 1804 1285 1778 1315 c 0
 1774 1319 1770 1325 1765 1330 c 0
 1734 1367 1692 1415 1664 1403 c 1
 1409 1223 l 2
 1409 1223 1372 1211 1365 1209 c 2
 1318 1267 l 1
 1337 1294 l 2
 1593 1476 l 1
 1604 1526 1535 1630 1528 1636 c 0
 1490 1686 1435 1746 1403 1730 c 1
 1152 1551 l 2
 1152 1551 1093 1533 1091 1532 c 0
 1091 1532 1089 1530 1088 1529 c 2
 1058 1545 l 1
 1037 1540 l 0
 1037 1540 1020 1527 1014 1523 c 1
 992 1585 l 1
 992 1585 967 1592 966 1592 c 1
 966 1592 915 1571 914 1570 c 1
 914 1570 905 1555 905 1554 c 2
 937 1468 l 1
 424 1104 l 1
 424 1104 381 1042 380 1041 c 1
 378 1025 l 0
 351 975 l 2
 351 974 107 803 107 803 c 1
380 1041 m 1
 380 1041 l 1
914 1570 m 1
 914 1570 l 1
966 1592 m 1
 966 1592 l 1
992 1585 m 1
 992 1585 l 1
1037 1540 m 1
 1037 1540 l 1
1058 1546 m 1
 1058 1546 l 1
1091 1532 m 1
 1091 1532 l 1
1802 660 m 1
 1802 660 l 1
1797 632 m 1
 1797 632 l 1
1089 174 m 1
 1089 174 l 1
987 664 m 1
 1296 884 l 1
 1345 853 1367 834 1397 777 c 1
 1085 557 l 2
 1083 557 1081 558 1081 558 c 0
 1033 593 1013 608 987 664 c 1
937 1468 m 1025
EndSplineSet
Validated: 41
EndChar

StartChar: B
Encoding: 66 66 28
Width: 2021
Flags: HW
LayerCount: 2
Fore
SplineSet
1021 685 m 1
 1088 746 l 1
 1201 931 l 1
 1471 960 1471 959 1471 959 c 0
 1496 964 1521 970 1546 975 c 1
 1546 494 l 1
 1524 494 l 1
 1411 557 1299 621 1186 685 c 1
 1021 685 l 1
1364 1162 m 0
 1401 1139 1437 1115 1474 1092 c 0
 1474 1091 1474 1091 1473 981 c 1
 1290 984 l 1
 1284 1001 1278 1018 1272 1035 c 0
 1274 1107 l 2
 1274 1107 1294 1158 1295 1161 c 0
 1326 1161 1363 1162 1364 1162 c 0
863 1818 m 0
 859 1822 847 1822 834 1825 c 1
 858 1878 l 1
 1195 1878 l 1
 1213 1787 l 1
 854 1787 l 1
 859 1791 859 1791 862 1793 c 0
 870 1798 877 1803 863 1818 c 0
682 1825 m 1
 666 1825 650 1825 635 1825 c 1
 613 1812 l 1
 613 1792 l 1
 615 1792 l 1
 540 1792 247 1791 247 1791 c 0
 150 1765 108 1659 94 1575 c 1
 94 1129 l 1
 195 1129 l 1
 195 648 l 1
 100 648 l 1
 100 94 l 1
 110 31 158 10 191 0 c 1
 1771 0 l 1
 1852 15 1872 74 1891 160 c 1
 1891 498 l 1
 1792 498 l 1
 1792 1071 l 1
 1890 1071 l 1
 1890 1265 l 1
 1921 1265 l 1
 1921 1391 l 1
 1890 1391 l 1
 1890 1652 l 0
 1869 1721 1846 1783 1769 1792 c 1
 1769 1792 1417 1792 1391 1792 c 1
 1376 1883 l 1
 1361 1875 l 1
 1349 1882 l 1
 1329 1874 l 1
 1238 1987 l 0
 1223 1995 1210 1999 1197 2000 c 1
 832 2000 l 0
 819 1996 810 1990 803 1983 c 1
 803 1983 703 1843 698 1836 c 2
 682 1825 l 1
659 1130 m 1
 692 1132 l 1
 693 1161 l 1
 935 1161 l 1
 924 983 l 1
 924 983 924 983 852 906 c 0
 851 906 790 890 791 890 c 1
 747 883 703 876 659 869 c 1
 659 1130 l 1
1363 1160 m 1
 1186 1275 l 2
 1185 1275 732 1271 709 1271 c 1
 690 1244 l 2
 690 1243 696 1160 696 1160 c 2
 693 1159 l 1
 693 1159 686 1245 686 1244 c 1
 706 1274 l 2
 707 1274 1187 1279 1186 1279 c 1
 1364 1162 l 1
 1363 1160 l 1
1790 1071 m 1
 1498 1072 l 1
 1472 1090 l 2
 1474 1093 l 1
 1474 1093 1499 1075 1500 1075 c 2
 1790 1075 l 1
 1790 1071 l 1
1545 1072 m 1
 1542 1072 l 1
 1542 973 l 1
 1546 973 l 1
 1545 1072 l 1
EndSplineSet
Validated: 37
EndChar

StartChar: C
Encoding: 67 67 29
Width: 2700
Flags: HW
LayerCount: 2
Fore
SplineSet
1503 1180 m 1
 1505 1176 l 2
 1507 1173 1501 1173 1499 1172 c 2
 1489 1152 l 1
 1513 1095 l 1
 1461 1078 l 1
 1444 1079 1426 1082 1408 1084 c 1
 1379 1040 l 1
 1366 1033 1352 1026 1339 1019 c 0
 1334 1019 1328 1024 1322 1025 c 0
 1310 1021 1129 962 1129 962 c 2
 668 714 l 1
 652 666 l 1
 626 650 598 637 572 622 c 1
 591 753 l 1
 1431 1206 l 1
 1471 1185 1481 1180 1503 1180 c 1
1819 1176 m 1
 1842 1209 l 1
 1885 1183 l 1
 1873 1136 1834 1157 1819 1176 c 1
1835 1283 m 1
 1827 1275 l 1
 1832 1246 1829 1242 1826 1239 c 1
 1807 1253 l 1
 1788 1246 l 1
 1779 1270 1793 1307 1835 1283 c 1
1856 1295 m 1
 1830 1332 1749 1312 1765 1243 c 1
 1740 1234 l 1
 1739 1241 l 1
 1589 1250 l 1
 1559 1265 1528 1280 1498 1294 c 1
 1391 1259 l 1
 1391 1259 455 752 445 747 c 1
 444 728 442 715 441 696 c 0
 435 622 432 587 453 587 c 1
 489 574 l 1
 490 553 l 1
 431 533 l 1
 431 533 254 438 252 437 c 2
 262 275 l 1
 100 190 l 1
 102 154 103 115 106 80 c 1
 180 8 l 1
 204 16 228 24 252 31 c 1
 252 31 350 86 363 93 c 1
 427 24 l 1
 421 30 449 6 451 7 c 2
 613 62 l 1
 783 152 l 2
 874 182 l 2
 898 197 l 1
 1089 261 l 1
 1085 260 1558 511 1558 513 c 0
 1562 528 1567 543 1571 558 c 1
 1568 583 l 1
 1606 594 l 1
 1606 594 1606 595 1785 695 c 1
 1783 758 l 1
 1875 778 1910 825 1853 911 c 1
 1797 1111 l 1
 1797 1111 1778 1152 1774 1162 c 1
 1796 1170 l 1
 1804 1152 1856 1114 1899 1161 c 1
 1908 1042 l 2
 1910 1018 1920 1004 1929 994 c 1
 2557 637 2557 636 2558 636 c 0
 2570 636 2595 648 2600 679 c 1
 2570 1022 l 2
 2567 1042 2561 1060 2545 1074 c 1
 2550 1070 1925 1425 1923 1425 c 0
 1904 1428 1881 1398 1881 1386 c 1
 1881 1386 1887 1309 1888 1292 c 1
 1880 1294 1872 1299 1865 1300 c 1
 1856 1295 l 1
780 154 m 1
 786 177 l 2
 768 396 l 2
 768 397 606 569 593 583 c 1
 492 550 l 1
 491 554 l 1
 593 587 l 2
 595 587 771 398 771 399 c 1
 771 399 790 177 790 178 c 1
 784 153 l 1
 780 154 l 1
787 179 m 1
 789 175 l 1
 835 192 l 1
 830 270 824 347 818 425 c 1
 818 424 659 593 647 606 c 1
 654 633 l 2
 655 634 822 721 822 721 c 1
 821 720 852 781 852 781 c 2
 852 782 1323 1025 1323 1025 c 1
 1321 1029 l 1
 850 784 l 1
 850 784 819 723 819 722 c 2
 653 636 l 1
 653 636 644 606 644 604 c 2
 644 604 815 424 815 423 c 2
 831 194 l 1
 787 179 l 1
EndSplineSet
Validated: 37
EndChar

StartChar: D
Encoding: 68 68 30
Width: 3200
Flags: HW
LayerCount: 2
Fore
SplineSet
1554 804 m 1
 1565 769 1577 734 1588 698 c 1
 1445 513 l 2
 1443 513 1300 513 1256 513 c 1
 1162 663 l 1
 1209 804 l 1
 1554 804 l 1
1867 626 m 1
 1847 734 l 1
 1857 757 1870 780 1881 803 c 0
 1882 804 1882 804 1945 804 c 1
 1937 744 l 1
 1946 692 l 1
 1992 651 l 1
 2002 651 l 1
 1982 689 l 2
 1982 689 1982 698 1980 746 c 1
 1987 766 1996 784 2003 804 c 1
 2172 804 l 1
 2168 626 l 1
 1867 626 l 1
1876 1679 m 1
 1876 1563 l 1
 1869 1558 1861 1552 1855 1546 c 1
 1847 1513 l 1
 1749 1513 l 1
 1749 1458 l 1
 1680 1458 l 1
 1680 1362 l 1
 447 1362 l 1
 215 1158 l 1
 178 1158 141 1158 104 1158 c 1
 104 535 l 2
 104 535 103 512 100 432 c 1
 955 420 l 1
 971 484 984 532 984 532 c 2
 983 857 l 1
 988 860 l 1
 989 756 988 649 990 545 c 1
 1133 388 l 1
 1133 129 l 1
 1503 129 l 1
 1718 444 l 1
 1739 450 1759 456 1779 463 c 1
 1885 608 l 1
 2327 608 l 1
 2327 580 l 1
 2285 561 l 1
 2285 384 2284 204 2286 28 c 1
 2295 20 2303 10 2313 2 c 1
 2378 2 2445 2 2508 3 c 1
 2535 30 l 1
 2535 560 l 1
 2492 581 l 1
 2492 605 l 1
 2509 605 l 1
 2509 738 l 1
 2609 738 l 1
 2708 554 l 1
 2757 554 l 1
 2757 917 l 1
 3100 917 l 1
 3100 1071 l 1
 2757 1071 l 1
 2757 1071 2757 1187 2757 1188 c 2
 2695 1345 l 1
 2695 1477 l 1
 2654 1482 l 1
 2623 1356 l 1
 2593 1329 l 1
 2593 1441 l 1
 2523 1441 l 1
 2523 1457 l 1
 2422 1457 l 1
 2422 1514 l 1
 2320 1514 l 1
 2320 1547 l 1
 2312 1552 2306 1559 2297 1564 c 1
 2096 1564 l 1
 2030 1679 l 2
 2029 1679 1878 1679 1876 1679 c 1
EndSplineSet
Validated: 41
EndChar

StartChar: E
Encoding: 69 69 31
Width: 3950
Flags: HW
LayerCount: 2
Fore
SplineSet
1236 499 m 1
 1144 646 l 1
 1187 784 l 2
 1189 784 1190 784 1530 784 c 1
 1563 681 l 1
 1421 499 l 1
 1236 499 l 1
1835 608 m 1
 1816 714 1816 715 1816 715 c 1
 1848 783 l 2
 1849 784 1850 785 1913 785 c 1
 1913 783 1905 730 1905 727 c 2
 1905 727 1914 674 1914 673 c 2
 1914 673 1957 634 1959 633 c 2
 1968 633 l 1
 1962 644 1946 673 1946 673 c 0
 1946 674 1946 728 1946 727 c 1
 1968 783 l 2
 1970 784 2102 785 2135 785 c 1
 2135 782 2131 634 2131 608 c 1
 1835 608 l 1
1946 673 m 1
 1946 673 l 1
1997 1645 m 1
 1844 1645 l 1
 1844 1529 l 1
 1824 1515 l 1
 1824 1515 1819 1489 1817 1481 c 2
 1719 1481 l 1
 1719 1426 l 1
 1652 1426 l 1
 1652 1331 l 1
 441 1331 l 1
 442 1331 214 1130 214 1130 c 2
 210 1130 108 1130 107 1130 c 0
 107 931 107 732 107 533 c 0
 107 533 100 421 100 420 c 1
 481 415 935 409 943 409 c 0
 952 445 961 481 970 518 c 1
 970 517 970 813 970 836 c 2
 975 839 l 1
 975 529 l 1
 975 531 1113 380 1113 380 c 2
 1114 377 1113 121 1113 120 c 2
 1478 120 l 1
 1548 224 1618 327 1689 430 c 0
 1690 431 1751 450 1751 450 c 1
 1750 449 1843 577 1853 591 c 2
 2286 590 l 1
 2286 566 l 1
 2246 548 l 1
 2246 373 2247 199 2247 24 c 1
 2273 -1 l 1
 2273 -1 2460 -1 2465 -1 c 1
 2465 0 2489 24 2489 24 c 1
 2489 546 l 1
 2449 566 l 1
 2449 587 l 1
 2467 587 l 1
 2467 718 l 1
 2562 718 l 1
 2659 540 l 1
 2709 540 l 1
 2709 915 l 1
 2740 915 l 1
 2785 853 l 1
 3131 853 3471 853 3815 853 c 1
 3850 866 l 2
 3850 1077 l 2
 3838 1081 3825 1086 3813 1091 c 2
 2785 1091 l 1
 2740 1027 l 1
 2708 1027 l 1
 2708 1071 2708 1116 2708 1160 c 1
 2708 1159 2647 1312 2647 1312 c 2
 2647 1315 2649 1446 2649 1447 c 0
 2643 1447 2643 1447 2607 1450 c 1
 2597 1409 2586 1368 2576 1327 c 0
 2576 1326 2556 1309 2547 1301 c 1
 2547 1410 l 1
 2480 1410 l 1
 2480 1425 l 1
 2382 1425 l 1
 2382 1482 l 1
 2281 1482 l 2
 2280 1493 2283 1506 2280 1515 c 2
 2257 1530 l 1
 2258 1530 2080 1530 2061 1530 c 2
 1997 1645 l 1
3815 853 m 1
 3815 853 l 1
2465 -1 m 1
 2465 -1 l 1
2273 -1 m 1
 2273 -1 l 1
2247 24 m 1
 2247 24 l 1
1824 1515 m 1
 1824 1515 l 1
EndSplineSet
Validated: 37
EndChar

StartChar: F
Encoding: 70 70 32
Width: 6200
Flags: HW
LayerCount: 2
Fore
SplineSet
2201 697 m 1
 2202 697 2297 696 2303 696 c 1
 2286 632 2286 632 2286 632 c 0
 2300 593 2315 554 2329 515 c 1
 2270 515 l 1
 2203 553 l 2
 2201 556 2201 686 2201 697 c 1
2352 514 m 0
 2335 629 2334 629 2334 629 c 1
 2362 695 l 2
 2365 697 2565 700 2567 700 c 0
 2574 629 l 1
 2509 516 l 2
 2506 514 2361 514 2352 514 c 0
2685 1222 m 1
 2676 1362 l 1
 2677 1362 3326 1361 3332 1361 c 1
 3320 1222 l 1
 2685 1222 l 1
3396 1563 m 1
 3327 1563 l 1
 3331 1548 3311 1558 3311 1548 c 2
 3311 1536 l 1
 3220 1536 l 1
 3219 1562 l 2
 3220 1564 3233 1578 3234 1579 c 1
 3233 1579 3234 1613 3234 1627 c 1
 3066 1627 l 1
 3066 1610 3067 1592 3067 1575 c 1
 3068 1575 3081 1563 3081 1563 c 2
 3081 1561 3081 1544 3081 1536 c 2
 2695 1536 l 1
 2680 1563 l 1
 2612 1563 l 1
 2615 1544 2595 1562 2595 1536 c 1
 2528 1536 2461 1536 2394 1536 c 0
 2393 1536 2247 1576 2247 1576 c 1
 1571 1576 l 1
 1571 1316 l 1
 2248 1316 l 1
 2247 1316 2389 1354 2389 1354 c 2
 2389 1354 2578 1354 2608 1354 c 1
 2608 1190 l 1
 1658 1190 l 1
 1658 1223 l 1
 1637 1222 1614 1224 1596 1221 c 2
 1557 1172 l 1
 186 1172 l 1
 186 1285 l 1
 185 1285 101 1284 100 1284 c 1
 100 116 l 1
 187 116 l 1
 187 161 l 1
 539 161 l 1
 539 374 l 1
 906 596 l 2
 908 596 946 597 959 597 c 2
 959 366 l 1
 1497 366 l 1
 1497 598 l 1
 1521 598 l 1
 1521 748 l 1
 1850 748 l 1
 1899 690 l 1
 1864 569 l 2
 1863 568 1798 484 1798 484 c 2
 1798 483 1729 429 1729 429 c 1
 1730 430 1639 255 1639 255 c 1
 1639 256 1631 60 1631 54 c 1
 1632 54 1668 19 1668 18 c 1
 1669 19 2044 6 2051 6 c 1
 2051 8 2095 42 2095 46 c 2
 2094 241 l 2
 2094 241 2116 423 2119 447 c 2
 2263 486 l 2
 2264 486 2525 492 2528 492 c 0
 2554 538 2581 584 2607 630 c 1
 2607 629 2621 697 2621 697 c 2
 2621 698 2630 704 2655 813 c 1
 3296 814 l 2
 3296 814 3296 814 3348 764 c 0
 3367 781 3385 798 3404 815 c 0
 3409 817 3410 816 3410 804 c 1
 4785 804 l 1
 4781 800 l 1
 4784 800 4778 743 4783 741 c 0
 4799 736 4782 715 4803 715 c 1
 4803 687 l 1
 4770 678 l 1
 4853 436 l 1
 4888 457 4923 476 4959 496 c 1
 4959 496 4974 531 4978 541 c 2
 5868 541 l 1
 5882 508 l 1
 5882 470 l 1
 5911 470 l 1
 5911 483 5910 495 5910 508 c 0
 5911 510 5917 515 5919 518 c 2
 5981 505 l 2
 5983 504 6004 484 6006 482 c 1
 6006 483 6037 484 6039 484 c 1
 6039 485 6098 550 6100 552 c 1
 6099 552 6099 657 6099 660 c 1
 6098 660 6043 714 6040 717 c 1
 6039 715 6007 719 6004 716 c 2
 5981 687 l 2
 5979 686 5929 677 5918 675 c 2
 5902 691 l 1
 5901 689 5883 694 5881 688 c 2
 5869 653 l 1
 5539 653 l 1
 5539 689 l 1
 5504 689 l 1
 5504 653 l 1
 5028 653 l 1
 5037 675 l 1
 5002 687 l 1
 5002 715 l 1
 5248 715 l 1
 5248 738 l 2
 5250 739 5255 738 5254 742 c 2
 5254 813 l 1
 5248 813 l 1
 5248 916 l 1
 5879 916 l 1
 5879 990 l 1
 5459 990 l 1
 5459 1006 l 1
 5880 1006 l 1
 5880 1057 l 1
 5248 1057 l 1
 5248 1169 l 1
 5243 1169 l 1
 5243 1190 l 1
 3402 1190 l 1
 3402 1356 l 1
 3496 1356 3591 1356 3685 1356 c 0
 3686 1356 4225 1236 4225 1236 c 1
 4956 1236 l 1
 4956 1658 l 1
 4213 1658 l 1
 3679 1536 l 2
 3678 1536 3438 1536 3412 1536 c 2
 3396 1563 l 1
2271 515 m 1
 2271 515 l 1
2574 629 m 1
 2574 629 l 1
5902 691 m 1
 5902 691 l 1
6040 717 m 1
 6040 717 l 1
6099 660 m 1
 6099 660 l 1
6100 552 m 1
 6100 552 l 1
6039 484 m 1
 6039 484 l 1
6006 482 m 1
 6006 482 l 1
4959 497 m 1
 4959 497 l 1
4781 800 m 1
 4781 800 l 1
2051 6 m 1
 2051 6 l 1
1669 18 m 1
 1669 18 l 1
1631 54 m 1
 1631 54 l 1
3067 1575 m 1
 3067 1575 l 1
3234 1579 m 1
 3234 1579 l 1
EndSplineSet
Validated: 37
EndChar

StartChar: G
Encoding: 71 71 33
Width: 6200
Flags: HW
LayerCount: 2
Fore
SplineSet
2226 678 m 2
 2238 660 l 2
 2240 658 2240 657 2156 485 c 0
 2153 485 1919 495 1886 496 c 2
 1886 496 1887 496 1849 607 c 0
 1849 609 1849 609 1891 680 c 0
 2225 680 2225 679 2226 678 c 2
4762 902 m 1
 4763 902 5676 902 5685 902 c 1
 5685 880 l 1
 5792 880 l 1
 5792 853 l 1
 4762 853 l 1
 4762 902 l 1
3171 1079 m 1
 5688 1080 l 1
 5688 1052 l 1
 3171 1052 l 1
 3171 1079 l 1
2334 1157 m 1
 2237 1157 l 1
 2237 1254 l 1
 2188 1254 2139 1253 2091 1253 c 1
 2091 1253 2005 1196 2003 1192 c 2
 2003 1156 l 1
 1960 1156 1917 1156 1875 1156 c 1
 1876 1156 1672 1112 1672 1112 c 2
 1669 1112 1448 1085 1447 1085 c 2
 1447 1052 l 1
 1289 1052 l 1
 1289 1087 l 1
 149 1087 l 1
 149 1115 l 1
 100 1112 l 1
 100 402 l 1
 146 402 l 1
 146 402 372 461 1022 629 c 1
 1022 827 l 1
 1290 827 l 1
 1290 880 l 1
 1441 880 l 1
 1441 844 1441 808 1441 772 c 1
 1441 773 1469 674 1473 671 c 2
 1583 671 l 1
 1584 639 l 2
 1584 637 1265 152 1262 148 c 1
 1248 93 l 0
 1263 85 1278 76 1294 68 c 1
 1294 68 1294 68 1556 -2 c 0
 1565 22 1575 46 1584 70 c 0
 1787 443 l 2
 1790 445 1895 456 1895 456 c 2
 1895 456 2189 462 2193 462 c 0
 2239 486 l 1
 2490 671 l 2
 2492 672 3145 671 3149 674 c 2
 3156 693 l 1
 3599 693 l 1
 3599 645 l 1
 4769 645 l 1
 4769 693 l 1
 5784 693 l 1
 5784 660 l 1
 5933 660 l 1
 5933 694 l 1
 6028 694 l 1
 6028 863 l 1
 5934 863 l 1
 5934 873 l 1
 6048 873 l 1
 6048 894 l 1
 6100 894 l 1
 6100 1064 l 1
 6048 1064 l 1
 6048 1118 6053 969 6053 1156 c 1
 6027 1156 l 1
 6027 1176 l 1
 6015 1176 l 1
 6015 1194 l 1
 5969 1194 5923 1193 5877 1193 c 1
 5841 1167 l 2
 5834 1165 5741 1160 5734 1155 c 0
 5732 1154 3503 1170 3187 1170 c 1
 3187 1170 3182 1230 3179 1234 c 2
 3083 1266 l 1
 3084 1266 2899 1265 2899 1265 c 2
 2897 1265 2870 1284 2863 1289 c 2
 2863 1459 l 1
 2584 1459 l 1
 2584 1411 2584 1411 2578 1346 c 0
 2578 1345 2537 1254 2537 1254 c 1
 2537 1255 2537 1176 2537 1156 c 2
 2529 1156 l 1
 2528 1171 l 1
 2527 1170 2482 1211 2480 1213 c 1
 2480 1212 2379 1212 2379 1212 c 0
 2376 1213 2357 1230 2357 1230 c 2
 2356 1232 2343 1264 2342 1268 c 1
 2341 1267 2324 1277 2323 1277 c 0
 2323 1277 2297 1276 2294 1275 c 2
 2275 1248 l 1
 2275 1248 2260 1201 2260 1197 c 2
 2278 1179 l 1
 2278 1180 2322 1168 2334 1165 c 2
 2334 1157 l 1
5736 1157 m 1
 5736 1157 l 1
5877 1193 m 1
 5877 1193 l 1
2193 462 m 1
 2193 462 l 1
1262 148 m 1
 1262 148 l 1
2091 1253 m 1
 2091 1253 l 1
2278 1179 m 1
 2278 1179 l 1
2275 1248 m 1
 2275 1248 l 1
2323 1277 m 1
 2323 1277 l 1
2342 1268 m 1
 2342 1268 l 1
2480 1213 m 1
 2480 1213 l 1
2528 1171 m 1
 2528 1171 l 1
EndSplineSet
Validated: 37
EndChar

StartChar: H
Encoding: 72 72 34
Width: 2700
Flags: HW
LayerCount: 2
Fore
SplineSet
1423 1054 m 1
 1468 957 1468 957 1468 957 c 1
 1455 898 1443 841 1430 782 c 0
 1426 782 1029 777 1030 777 c 1
 988 808 947 838 905 869 c 0
 905 869 917 928 917 927 c 1
 998 1053 l 2
 998 1054 998 1053 1097 1053 c 1
 1089 1002 1077 929 1077 928 c 2
 1125 799 l 1
 1173 799 l 1
 1172 816 1165 927 1165 927 c 1
 1165 927 1204 1053 1204 1054 c 2
 1423 1054 l 1
2600 1401 m 1
 2600 1499 l 1
 2146 1499 l 1
 2134 1567 l 1
 2040 1574 l 1
 2013 1498 l 1
 567 1498 l 1
 544 1545 l 1
 546 1544 416 1565 309 1582 c 1
 307 1551 305 1521 303 1490 c 0
 222 1314 l 2
 157 1263 l 1
 157 1264 114 1074 115 1072 c 2
 304 949 l 2
 305 948 343 827 343 827 c 2
 343 826 305 696 305 696 c 2
 208 538 l 1
 208 538 101 34 100 29 c 1
 209 22 318 15 427 8 c 1
 427 8 743 12 746 12 c 0
 758 153 769 293 781 434 c 0
 781 434 872 735 880 761 c 1
 1037 730 l 1
 1037 730 1471 737 1473 738 c 2
 1553 965 l 1
 2313 963 l 1
 2534 1053 l 1
 2533 1052 2600 1401 2600 1401 c 1
1051 1495 m 1
 1051 1401 l 1
 1394 1401 l 1
 1394 1495 l 1
 1398 1495 l 1
 1398 1397 l 1
 1047 1397 l 1
 1047 1495 l 1
 1051 1495 l 1
EndSplineSet
Validated: 37
EndChar

StartChar: I
Encoding: 73 73 35
Width: 4200
Flags: HW
LayerCount: 2
Fore
SplineSet
3554 1074 m 1
 3554 1074 3702 1074 3703 1074 c 1
 3703 1058 l 1
 3554 1058 l 1
 3554 1074 l 1
1308 1118 m 2
 1131 1118 l 1
 1131 1096 l 1
 1030 1096 l 1
 1030 1119 l 1
 743 1119 456 1119 169 1119 c 0
 168 1119 129 1142 127 1143 c 1
 100 1142 l 1
 100 911 l 1
 100 911 112 798 155 395 c 1
 164 396 173 398 182 399 c 1
 180 398 379 659 415 706 c 1
 409 600 l 1
 467 645 524 691 582 736 c 0
 584 737 734 736 778 736 c 1
 778 748 l 1
 809 748 l 1
 809 882 l 1
 1029 882 l 1
 1029 910 l 1
 1206 910 l 1
 1206 910 1204 903 1209 904 c 2
 1250 904 l 1
 1250 805 l 1
 1264 805 1279 805 1293 805 c 0
 1294 805 1385 761 1385 761 c 2
 1387 760 1408 733 1410 734 c 2
 1426 735 l 1
 1411 641 l 2
 1411 640 1200 288 1198 285 c 1
 1291 256 1384 228 1477 199 c 1
 1477 200 1506 211 1508 212 c 1
 1507 213 1515 236 1513 238 c 2
 1489 269 l 1
 1643 523 l 2
 1643 523 1643 529 1643 533 c 2
 1944 533 l 2
 1946 530 1945 524 1950 524 c 2
 1996 531 l 2
 1998 527 1998 526 2049 537 c 1
 2057 452 l 1
 2119 227 l 1
 2119 227 2229 2 2230 0 c 2
 2552 148 l 1
 2522 210 2490 271 2460 333 c 0
 2407 523 l 2
 2407 523 2401 590 2400 604 c 0
 2408 605 2432 609 2432 615 c 2
 2430 630 l 1
 2430 630 2418 639 2414 642 c 2
 2414 817 l 1
 2462 841 l 1
 2462 850 l 1
 3137 850 l 1
 3137 378 l 1
 3271 378 l 1
 3271 851 l 1
 3428 851 l 1
 3428 982 l 1
 3495 982 l 1
 3495 965 l 1
 3559 965 l 1
 3559 982 l 1
 3697 982 l 1
 3697 963 l 1
 3762 963 l 1
 3762 982 l 1
 3845 982 l 1
 3845 964 l 1
 4100 964 l 1
 4100 1073 l 1
 3845 1073 l 1
 3845 1064 l 1
 3763 1064 l 1
 3763 1074 l 1
 3756 1074 l 1
 3756 1109 l 1
 3709 1109 l 1
 3709 1132 l 1
 3810 1132 l 1
 3878 1172 l 1
 3878 1206 l 1
 3644 1206 l 1
 3644 1195 l 1
 3644 1195 3636 1198 3637 1193 c 2
 3637 1108 l 1
 3499 1108 l 1
 3499 1077 l 1
 3499 1077 3493 1078 3494 1074 c 2
 3494 1065 l 1
 3428 1065 l 1
 3428 1213 l 1
 2458 1213 l 1
 2458 1207 l 1
 2143 1207 l 1
 2143 1299 l 1
 2143 1299 2122 1320 2121 1320 c 1
 1951 1329 l 0
 1950 1330 1901 1372 1901 1372 c 2
 1901 1374 1900 1384 1900 1384 c 1
 1900 1384 1900 1385 1863 1527 c 1
 1688 1527 l 1
 1688 1490 1688 1490 1683 1416 c 0
 1683 1415 1652 1341 1652 1341 c 2
 1649 1339 1624 1332 1623 1332 c 0
 1622 1290 1620 1249 1619 1207 c 1
 1491 1207 l 1
 1491 1233 l 1
 1490 1233 1470 1253 1469 1254 c 1
 1469 1253 1370 1255 1370 1253 c 1
 1354 1268 l 1
 1354 1267 1284 1267 1281 1267 c 1
 1281 1267 1263 1248 1262 1247 c 1
 1263 1247 1263 1211 1263 1209 c 1
 1263 1209 1283 1190 1284 1189 c 1
 1284 1190 1328 1189 1339 1189 c 2
 1339 1170 l 2
 1339 1169 1313 1126 1308 1118 c 2
1771 739 m 2
 1905 739 l 1
 1906 738 1958 690 1958 690 c 1
 1958 689 1975 633 1976 633 c 1
 1975 632 1958 583 1958 583 c 0
 1957 571 1946 566 1943 559 c 0
 1943 556 1944 552 1944 548 c 0
 1865 548 1734 549 1736 548 c 1
 1691 581 l 1
 1687 591 1684 601 1681 611 c 1
 1768 611 l 1
 1768 737 l 2
 1768 739 1769 739 1771 739 c 2
1905 739 m 1
 1905 739 l 1
1958 690 m 1
 1958 690 l 1
1976 633 m 1
 1976 633 l 1
1958 578 m 1
 1958 578 l 1
1691 581 m 1
 1691 581 l 1
2121 1320 m 1
 2121 1320 l 1
2143 1299 m 1
 2143 1299 l 1
2430 630 m 1
 2430 630 l 1
2420 607 m 1
 2420 607 l 1
1643 523 m 1
 1643 523 l 1
1508 212 m 1
 1508 212 l 1
1477 199 m 1
 1477 199 l 1
127 1143 m 1
 127 1143 l 1
1284 1189 m 1
 1284 1189 l 1
1263 1209 m 1
 1263 1209 l 1
1262 1247 m 1
 1262 1247 l 1
1281 1267 m 1
 1281 1267 l 1
1354 1268 m 1
 1354 1268 l 1
1469 1254 m 1
 1469 1254 l 1
1491 1233 m 1
 1491 1233 l 1
EndSplineSet
Validated: 37
EndChar

StartChar: J
Encoding: 74 74 36
Width: 5700
Flags: HW
LayerCount: 2
Fore
SplineSet
5102 1059 m 1
 5103 1059 5270 1059 5272 1059 c 2
 5272 1039 l 1
 5272 1039 5272 1039 5106 1039 c 0
 5102 1039 5102 1039 5102 1059 c 1
3871 1086 m 1
 4567 1086 l 1
 4567 1039 l 1
 3871 1039 l 1
 3871 1086 l 1
2154 1203 m 1
 2133 1248 2133 1249 2130 1257 c 1
 2134 1257 2208 1257 2208 1257 c 1
 2208 1203 l 1
 2154 1203 l 1
2241 1258 m 1
 2331 1258 l 1
 2304 1204 l 2
 2301 1202 2252 1202 2241 1202 c 1
 2241 1258 l 1
1992 536 m 1
 1992 585 1992 634 1992 682 c 1
 2084 682 2146 681 2146 682 c 1
 2148 681 2208 624 2208 624 c 1
 2208 623 2228 560 2229 560 c 1
 2228 558 2206 494 2206 495 c 1
 2192 476 l 1
 2196 462 l 1
 2194 462 1956 463 1956 462 c 1
 1955 463 1907 498 1907 498 c 1
 1902 511 1897 523 1892 536 c 1
 1992 536 l 1
2146 682 m 1
 2146 682 l 1
2208 624 m 1
 2208 624 l 1
2229 560 m 1
 2229 560 l 1
1957 462 m 1
 1957 462 l 1
1907 498 m 1
 1907 498 l 1
1798 1550 m 0
 1795 1550 1793 1549 1794 1546 c 2
 1794 1323 l 1
 1856 1323 1919 1324 1981 1324 c 1
 1981 1325 1993 1338 1993 1338 c 2
 1995 1339 2017 1338 2026 1338 c 1
 2022 1316 l 1
 1924 1316 l 1
 1905 1287 l 1
 1813 1287 l 1
 1813 1210 l 1
 1681 1210 l 1
 1680 1239 l 1
 1679 1239 1659 1259 1658 1260 c 1
 1658 1259 1546 1259 1546 1259 c 0
 1544 1260 1526 1277 1525 1278 c 1
 1525 1277 1446 1277 1442 1277 c 1
 1442 1276 1421 1255 1420 1254 c 1
 1421 1254 1421 1212 1421 1209 c 1
 1422 1209 1444 1188 1445 1187 c 1
 1445 1188 1492 1187 1506 1187 c 2
 1506 1167 l 2
 1506 1165 1476 1117 1470 1106 c 2
 1271 1106 l 1
 1271 1083 l 1
 1156 1083 l 1
 1156 1110 l 1
 830 1110 504 1109 178 1109 c 0
 176 1109 133 1135 131 1136 c 1
 100 1135 l 1
 100 875 l 1
 100 875 113 745 162 284 c 1
 172 285 183 289 193 290 c 1
 191 289 423 594 460 642 c 1
 448 521 l 1
 514 571 580 622 646 673 c 1
 871 673 l 1
 871 688 l 1
 906 688 l 1
 906 842 l 1
 1154 842 l 1
 1154 874 l 1
 1357 874 l 1
 1357 874 1354 862 1361 864 c 2
 1405 864 l 1
 1405 748 l 1
 1422 748 1439 749 1457 749 c 0
 1458 749 1556 703 1556 703 c 2
 1557 703 1585 677 1587 675 c 1
 1587 675 1599 675 1606 675 c 1
 1588 568 l 1
 1346 162 l 1
 1451 129 1556 96 1661 64 c 1
 1661 64 1687 73 1698 77 c 0
 1699 88 1701 99 1702 110 c 1
 1701 110 1682 136 1677 143 c 2
 1853 435 l 2
 1853 435 1853 440 1853 444 c 2
 1958 444 l 1
 1958 446 l 1
 2191 446 l 1
 2191 446 2187 432 2195 435 c 2
 2247 442 l 1
 2245 434 2264 438 2313 451 c 1
 2319 355 l 1
 2319 356 2390 97 2391 95 c 1
 2780 217 l 1
 2759 289 2739 362 2718 434 c 0
 2718 435 2712 509 2710 526 c 0
 2732 530 2748 535 2747 540 c 2
 2744 556 l 1
 2743 556 2732 565 2728 568 c 2
 2728 766 l 1
 2785 805 l 2
 2787 805 3491 805 3549 805 c 1
 3549 268 l 1
 3701 268 l 1
 3701 805 l 1
 3879 805 l 1
 3879 952 l 1
 4560 952 l 1
 4561 906 l 1
 4561 906 4583 885 4584 884 c 1
 4584 885 4662 884 4662 884 c 1
 4662 951 l 1
 5032 951 l 1
 5032 933 l 1
 5108 933 l 1
 5108 952 l 1
 5264 952 l 1
 5264 932 l 1
 5339 932 l 1
 5339 952 l 1
 5600 952 l 1
 5600 1048 l 1
 5340 1048 l 1
 5340 1048 5344 1061 5336 1059 c 2
 5331 1059 l 1
 5331 1097 l 1
 5278 1097 l 1
 5278 1123 l 1
 5317 1123 5357 1123 5396 1123 c 0
 5423 1134 5449 1151 5470 1172 c 1
 5469 1172 5470 1198 5470 1207 c 1
 5203 1207 l 1
 5203 1207 5207 1193 5200 1195 c 0
 5197 1195 5195 1195 5196 1192 c 2
 5196 1097 l 1
 5040 1097 l 1
 5040 1062 l 1
 5040 1062 5031 1063 5033 1058 c 2
 5033 1048 l 1
 4662 1048 l 1
 4662 1079 l 1
 4707 1079 l 1
 4707 1175 l 1
 4662 1175 l 1
 4662 1206 l 1
 4559 1206 l 1
 4559 1174 l 1
 3878 1174 l 1
 3878 1216 l 1
 2779 1216 l 1
 2779 1210 l 1
 2548 1210 l 1
 2548 1260 l 1
 2526 1260 l 1
 2526 1316 l 1
 2556 1315 2587 1313 2617 1312 c 1
 2629 1346 2628 1347 2701 1562 c 1
 2299 1547 l 1
 2299 1551 2300 1551 2270 1573 c 1
 2272 1573 2094 1573 2094 1573 c 1
 2066 1550 l 1
 2066 1550 2065 1541 2064 1536 c 2
 1997 1534 l 2
 1994 1535 1980 1549 1980 1550 c 1
 1980 1549 1798 1550 1798 1550 c 0
2301 1316 m 1
 2301 1324 l 1
 2301 1316 l 1
5470 1172 m 1
 5470 1172 l 1
4584 884 m 1
 4584 884 l 1
4561 905 m 1
 4561 905 l 1
2744 556 m 1
 2744 556 l 1
2730 529 m 1
 2730 529 l 1
1853 435 m 1
 1853 435 l 1
1702 110 m 1
 1702 110 l 1
1661 64 m 1
 1661 64 l 1
1587 675 m 1
 1587 675 l 1
130 1136 m 1
 130 1136 l 1
1445 1187 m 1
 1445 1187 l 1
1421 1209 m 1
 1421 1209 l 1
1420 1254 m 1
 1420 1254 l 1
1441 1277 m 1
 1441 1277 l 1
1525 1278 m 1
 1525 1278 l 1
1658 1260 m 1
 1658 1260 l 1
1680 1239 m 1
 1680 1239 l 1
1981 1324 m 1
 1981 1324 l 1
1980 1550 m 1
 1980 1550 l 1
2066 1550 m 1
 2066 1550 l 1
EndSplineSet
Validated: 37
EndChar

StartChar: K
Encoding: 75 75 37
Width: 4700
Flags: HW
LayerCount: 2
Fore
SplineSet
3591 1095 m 1
 3592 1095 3741 1094 3742 1094 c 2
 3742 1076 l 1
 3591 1076 l 1
 3591 1095 l 1
1320 1136 m 2
 1142 1136 l 1
 1142 1115 l 1
 1038 1115 l 1
 1038 1139 l 1
 748 1139 459 1139 169 1139 c 0
 168 1139 128 1162 127 1163 c 1
 127 1163 107 1162 100 1162 c 1
 100 931 l 1
 100 931 112 816 155 407 c 0
 164 408 172 409 181 410 c 1
 179 409 391 686 420 724 c 1
 410 616 l 1
 469 661 528 707 587 752 c 0
 588 752 766 752 784 752 c 1
 784 765 l 1
 815 765 l 1
 815 900 l 1
 1039 900 l 1
 1039 929 l 1
 1217 929 l 1
 1217 929 1215 921 1220 922 c 2
 1262 922 l 1
 1262 820 l 1
 1277 820 1290 821 1305 821 c 0
 1306 821 1392 780 1392 780 c 2
 1393 779 1420 752 1422 750 c 1
 1422 750 1434 750 1440 750 c 1
 1425 656 l 2
 1425 656 1425 655 1209 296 c 1
 1303 267 1397 238 1491 209 c 1
 1491 209 1519 221 1522 222 c 1
 1521 223 1527 247 1526 249 c 2
 1503 279 l 1
 1659 537 l 2
 1659 537 1659 543 1659 546 c 0
 1662 546 1748 548 1963 548 c 0
 1965 545 1964 536 1969 537 c 0
 2056 550 1978 529 2071 550 c 1
 2077 464 l 1
 2139 240 l 1
 2139 240 2250 7 2251 5 c 2
 2578 159 l 1
 2547 221 2516 282 2485 344 c 0
 2432 536 l 2
 2432 536 2426 604 2425 618 c 2
 2425 618 2453 627 2455 629 c 2
 2455 629 2455 641 2454 643 c 2
 2440 656 l 1
 2440 834 l 1
 2440 834 2486 858 2487 860 c 2
 2487 860 2487 868 2488 868 c 0
 3170 868 3171 868 3171 868 c 1
 3171 389 l 1
 3306 389 l 1
 3306 869 l 1
 3463 869 l 1
 3463 1001 l 1
 3531 1001 l 1
 3531 983 l 1
 3596 983 l 1
 3596 1000 l 1
 3738 1000 l 1
 3738 981 l 1
 3801 981 l 1
 3801 1001 l 1
 3886 1001 l 1
 3886 937 l 1
 4600 937 l 1
 4600 1137 l 1
 3887 1137 l 1
 3887 1082 l 1
 3803 1082 l 1
 3803 1094 l 1
 3795 1094 l 1
 3795 1127 l 1
 3748 1127 l 1
 3748 1150 l 1
 3850 1151 l 2
 3874 1162 3897 1175 3919 1195 c 2
 3919 1225 l 2
 3917 1225 3684 1227 3683 1227 c 1
 3683 1216 l 1
 3683 1216 3674 1218 3675 1213 c 2
 3675 1127 l 1
 3536 1127 l 1
 3536 1096 l 1
 3536 1096 3529 1097 3530 1093 c 2
 3530 1082 l 1
 3462 1082 l 1
 3462 1232 l 1
 2485 1232 l 1
 2485 1232 2486 1227 2483 1228 c 2
 2165 1228 l 1
 2164 1322 l 1
 2163 1322 2143 1342 2143 1342 c 1
 1970 1351 l 0
 1969 1351 1921 1397 1921 1397 c 2
 1920 1400 1880 1550 1880 1551 c 2
 1705 1551 l 1
 1703 1512 1700 1474 1698 1435 c 0
 1698 1434 1669 1364 1669 1364 c 2
 1667 1362 1640 1354 1638 1352 c 2
 1635 1228 l 1
 1507 1228 l 1
 1506 1253 l 1
 1505 1253 1485 1273 1484 1274 c 1
 1484 1273 1386 1273 1386 1273 c 0
 1384 1274 1369 1289 1368 1289 c 1
 1368 1289 1298 1289 1294 1289 c 1
 1294 1288 1276 1270 1275 1269 c 1
 1276 1269 1276 1231 1276 1228 c 1
 1277 1228 1295 1210 1296 1209 c 1
 1296 1210 1339 1209 1351 1209 c 2
 1351 1190 l 2
 1351 1189 1325 1145 1320 1136 c 2
1785 627 m 1
 1785 670 1785 714 1785 757 c 0
 1786 757 1923 756 1923 757 c 1
 1924 756 1980 704 1980 704 c 1
 1980 703 1996 649 1996 649 c 1
 1996 647 1977 592 1977 592 c 1
 1963 574 l 1
 1966 562 l 1
 1897 562 1749 563 1751 562 c 1
 1707 594 l 1
 1703 605 1699 616 1695 627 c 1
 1785 627 l 1
1923 757 m 1
 1923 757 l 1
1980 704 m 1
 1980 704 l 1
1996 649 m 1
 1996 649 l 1
1707 593 m 1
 1707 593 l 1
2143 1342 m 1
 2143 1342 l 1
2164 1323 m 1
 2164 1323 l 1
1659 537 m 1
 1659 537 l 1
1522 222 m 1
 1522 222 l 1
1491 209 m 1
 1491 209 l 1
1422 750 m 1
 1422 750 l 1
127 1163 m 1
 127 1163 l 1
1296 1209 m 1
 1296 1209 l 1
1276 1228 m 1
 1276 1228 l 1
1275 1269 m 1
 1275 1269 l 1
1294 1289 m 1
 1294 1289 l 1
1368 1289 m 1
 1368 1289 l 1
1484 1274 m 1
 1484 1274 l 1
1506 1253 m 1
 1506 1253 l 1
EndSplineSet
Validated: 37
EndChar

StartChar: question
Encoding: 63 63 38
Width: 3993
Flags: HW
LayerCount: 2
Fore
SplineSet
1598 1359 m 27
 1563 1359 1562 1269 1597 1269 c 27
 1780 1269 1883 1269 2066 1269 c 27
 2101 1269 2103 1357 2068 1357 c 27
 1885 1357 1781 1359 1598 1359 c 27
1691 751 m 27
 1747 751 1776 751 1832 751 c 27
 1850 751 1834 721 1834 703 c 27
 1834 678 1812 655 1787 655 c 27
 1749 655 1691 619 1691 657 c 27
 1691 695 1654 751 1691 751 c 27
100 1314 m 27
 100 1215 190 1177 190 1078 c 27
 190 934 190 852 190 708 c 27
 190 654 329 654 329 708 c 27
 329 835 383 903 383 1030 c 27
 383 1101 565 1103 565 1032 c 27
 565 888 568 805 568 661 c 27
 568 625 623 660 659 660 c 27
 740 660 673 844 754 844 c 27
 844 844 896 843 986 843 c 27
 1037 843 988 763 988 712 c 27
 988 590 799 588 799 466 c 27
 799 410 794 333 850 333 c 27
 922 333 932 331 1004 331 c 27
 1055 331 1127 478 1127 529 c 3
 1127 619 1129 565 1129 655 c 19
 1129 693 1274 685 1346 687 c 0
 1398 688 1411 614 1411 562 c 27
 1411 343 1407 220 1406 1 c 25
 1733 0 l 25
 1700 37 1648 47 1648 96 c 27
 1648 223 1646 294 1646 421 c 27
 1646 448 1667 469 1694 469 c 27
 1802 469 1864 471 1972 471 c 27
 2047 471 1948 657 2023 657 c 27
 2139 657 2186 751 2302 751 c 27
 2383 751 2391 851 2391 932 c 3
 2391 941 2336 939 2297 939 c 25
 2297 1032 l 25
 2390 1032 l 25
 2411 998 2403 945 2444 945 c 27
 2990 945 3298 939 3844 939 c 27
 3871 939 3893 960 3893 987 c 27
 3893 1059 3893 1098 3893 1170 c 27
 3893 1195 3873 1218 3848 1218 c 27
 3301 1218 2991 1218 2443 1218 c 27
 2401 1218 2412 1161 2392 1125 c 25
 2299 1126 l 25
 2297 1173 l 25
 2263 1263 2305 1405 2207 1405 c 27
 1896 1405 1723 1405 1412 1405 c 27
 1355 1405 1420 1267 1363 1267 c 27
 1271 1267 1221 1267 1129 1267 c 27
 1093 1267 1132 1323 1132 1359 c 27
 1132 1395 1076 1359 1040 1359 c 27
 1023 1359 1056 1317 1039 1317 c 27
 874 1317 779 1314 614 1314 c 27
 573 1314 609 1221 568 1221 c 27
 477 1221 424 1222 332 1222 c 27
 291 1222 321 1314 295 1314 c 3
 270 1314 100 1386 100 1314 c 27
EndSplineSet
Validated: 41
EndChar

StartChar: period
Encoding: 46 46 39
Width: 1693
Flags: HW
LayerCount: 2
Fore
SplineSet
1593 431 m 1
 1593 2000 l 1
 100 2000 l 1
 98 432 l 1
 847 0 l 1
 1593 431 l 1
191 486 m 1
 193 1908 l 1
 1501 1908 l 1
 1501 484 l 1
 847 107 l 1
 191 486 l 1
1395 570 m 1
 1395 570 1395 779 1395 781 c 1
 845 463 l 2
 844 463 301 779 296 782 c 1
 296 711 296 639 296 568 c 1
 845 253 l 1
 1395 570 l 1
1393 779 m 1
 1393 761 1393 570 1393 570 c 2
 845 254 l 2
 845 254 297 568 297 569 c 2
 298 780 l 1
 844 462 l 1
 1393 779 l 1
297 781 m 1
 297 568 l 1
 845 254 l 1
 1394 570 l 1
 1394 780 l 1
 844 463 l 1
 297 781 l 1
1398 910 m 1
 1398 910 1398 1120 1398 1122 c 1
 847 804 l 2
 847 804 304 1119 299 1122 c 1
 299 1051 299 979 299 908 c 1
 848 594 l 1
 847 594 1398 910 1398 910 c 1
1396 1119 m 1
 1396 1102 1396 911 1396 910 c 2
 1396 910 848 595 847 595 c 2
 300 909 l 2
 300 1120 l 1
 847 803 l 1
 1396 1119 l 1
300 1121 m 1
 300 909 l 1
 848 594 l 1
 1397 910 l 1
 1397 1120 l 1
 847 803 l 1
 300 1121 l 1
1395 1251 m 1
 1395 1251 1395 1461 1395 1463 c 1
 845 1145 l 2
 844 1145 302 1461 296 1464 c 1
 296 1393 297 1320 297 1249 c 1
 846 935 l 1
 1395 1251 l 1
1394 1460 m 1
 1394 1443 1394 1251 1394 1251 c 2
 845 936 l 2
 845 936 298 1250 298 1251 c 2
 298 1461 l 1
 844 1144 l 1
 1394 1460 l 1
297 1462 m 1
 297 1250 l 1
 845 935 l 1
 1395 1251 l 1
 1395 1462 l 1
 845 1144 l 1
 297 1462 l 1
297 1802 m 1
 295 1800 294 1800 296 1800 c 1
 297 1588 l 1
 846 1273 l 1
 1395 1590 l 1
 1395 1801 l 1
 296 1801 297 1802 297 1802 c 1
1394 1800 m 1
 1394 1786 1394 1590 1394 1590 c 2
 845 1275 l 2
 845 1275 298 1589 298 1590 c 2
 298 1800 l 1
 1394 1800 l 1
297 1801 m 1
 297 1589 l 1
 845 1274 l 1
 1395 1590 l 1
 1395 1800 l 1
 296 1800 l 1
 297 1801 l 1
EndSplineSet
Validated: 37
EndChar

StartChar: parenleft
Encoding: 40 40 40
Width: 1700
Flags: HW
LayerCount: 2
Fore
SplineSet
100 1300 m 29
 550 1300 l 29
 550 0 l 29
 1150 0 l 29
 1150 1300 l 29
 1600 1300 l 29
 850 2000 l 29
 100 1300 l 29
EndSplineSet
EndChar

StartChar: parenright
Encoding: 41 41 41
Width: 1700
Flags: HW
LayerCount: 2
Fore
SplineSet
100 700 m 25
 550 700 l 25
 550 2000 l 25
 1150 2000 l 25
 1150 700 l 25
 1600 700 l 25
 850 0 l 25
 100 700 l 25
EndSplineSet
EndChar

StartChar: uni0000
Encoding: 0 0 42
Width: 1000
Flags: HO
LayerCount: 2
Fore
SplineSet
496 334 m 0
 437 344 410.080953142 367.016522897 398 426 c 0
 364 592 382.04366786 735.978650601 456 888 c 0
 510 999 562 1008 664 1050 c 0
 745.796127713 1083.68075847 791.109589041 1185.04109589 760 1268 c 0
 715 1388 700 1404 534 1394 c 0
 381.224609375 1384.796875 352 1292 320 1126 c 0
 312.163085938 1085.34765625 252.995807567 1038.98092234 212 1048 c 0
 162 1059 117.395679099 1093.94619949 124 1144 c 0
 143 1288 170.844726562 1382.14550781 270 1488 c 0
 344 1567 441.747058664 1604.27314242 550 1600 c 0
 702 1594 857.567376513 1544.17284965 920 1338 c 0
 963 1196 950.642578125 1101.30566406 854 988 c 0
 796 920 648.400762882 869.249846176 614 786 c 0
 564 665 595.483632426 558.062512381 580 428 c 0
 575 386 537.008407336 327.049422485 496 334 c 0
500 0 m 27
 417 0 383 42 383 125 c 27
 383 201 424 250 500 250 c 27
 573 250 613 198 613 125 c 27
 613 50 575 0 500 0 c 27
EndSplineSet
EndChar
